<svg version="1.1" id="Layer_1" xmlns="http://www.w3.org/2000/svg" xmlns:xlink="http://www.w3.org/1999/xlink" x="0px" y="0px"
	 width="100%" viewBox="0 0 952 909" enable-background="new 0 0 952 909" xml:space="preserve">
<path fill="#FEFEFE" opacity="1.000000" stroke="none" 
	d="
M953.000000,319.000000 
	C953.000000,516.333313 953.000000,713.166687 953.000000,910.000000 
	C635.666687,910.000000 318.333344,910.000000 1.000000,910.000000 
	C1.000000,607.000000 1.000000,304.000000 1.000000,1.000000 
	C318.333344,1.000000 635.666687,1.000000 953.000000,1.000000 
	C953.000000,106.833336 953.000000,212.666672 953.000000,319.000000 
M377.523834,786.974487 
	C379.678986,781.982727 381.834167,776.990967 384.301086,771.597717 
	C384.308289,771.428406 384.315491,771.259094 384.850525,770.626831 
	C385.801117,767.070679 386.751709,763.514587 388.016724,759.199768 
	C388.358215,757.404846 388.938660,755.618469 389.003632,753.813599 
	C389.559479,738.370178 390.365875,722.925110 390.442108,707.477295 
	C390.610321,673.371155 390.396729,639.263000 390.709412,604.432556 
	C390.595703,602.607666 390.481964,600.782776 390.519012,598.082764 
	C390.509521,548.021912 390.554047,497.960815 390.387482,447.900452 
	C390.374237,443.915619 388.900116,439.935638 388.056793,435.251495 
	C385.063385,430.848724 382.272125,426.178925 375.320953,425.750488 
	C373.481262,425.213074 371.649200,424.241638 369.800598,424.209015 
	C358.246216,424.005005 349.014313,433.201996 348.891113,445.093811 
	C348.751373,458.579041 348.817078,472.066559 348.820007,485.553101 
	C348.838226,569.315491 349.161011,653.079529 348.715729,736.839417 
	C348.572266,763.829224 334.890015,783.064697 310.271271,794.357788 
	C298.490967,799.761658 285.939178,799.156921 273.459106,799.177368 
	C246.320267,799.221802 219.181442,799.282104 191.122742,799.131226 
	C186.070465,799.185974 181.018188,799.240662 175.297974,799.118835 
	C174.160019,799.180969 173.022049,799.243103 171.179886,799.101624 
	C169.438599,799.175354 167.697327,799.249084 165.041489,799.134338 
	C157.050140,799.130005 149.051819,798.929321 141.070740,799.213318 
	C137.652023,799.334961 136.257019,798.131836 134.917328,795.061035 
	C122.751907,767.175598 92.107025,751.799622 63.278976,759.186829 
	C59.762676,760.487366 56.246380,761.787903 51.959969,763.148560 
	C42.731880,767.658875 34.534580,773.433899 28.085423,782.498474 
	C13.186290,803.594421 10.891572,826.059204 22.837975,848.898193 
	C34.584732,871.355530 54.086746,882.920044 79.435425,882.285156 
	C105.475182,881.632996 123.999344,868.333862 134.948532,844.772034 
	C136.394302,841.660828 137.924881,840.785645 141.204651,840.793396 
	C188.531036,840.905151 235.857773,840.895813 283.184326,840.832520 
	C288.504547,840.825378 293.874084,840.683411 299.135529,839.972717 
	C326.150452,836.323914 348.730988,824.469177 366.703949,802.898804 
	C369.985565,798.022278 373.267212,793.145691 376.950684,787.885681 
	C376.974182,787.701965 376.997681,787.518311 377.523834,786.974487 
M265.457916,547.796204 
	C265.558105,549.183960 265.658295,550.571777 265.410278,552.464111 
	C265.519073,553.657043 265.627899,554.850037 265.518311,556.895508 
	C265.509308,562.890381 265.492096,568.885315 265.492676,574.880188 
	C265.495270,600.525452 265.567810,626.171021 265.482880,651.815979 
	C265.437469,665.528137 256.927948,674.013367 243.426300,674.101196 
	C236.099411,674.148865 228.772049,674.120422 221.444916,674.135132 
	C191.644043,674.195068 161.843155,674.258423 131.136383,674.101074 
	C127.410477,674.165833 123.684570,674.230591 119.172821,674.142700 
	C101.540276,676.017517 93.062683,693.234192 103.105255,707.674133 
	C105.389999,709.478577 107.674751,711.283020 110.419640,713.663208 
	C114.468803,714.405579 118.515358,715.776428 122.567520,715.793213 
	C163.061798,715.960876 203.557022,715.940002 244.051926,715.902527 
	C278.977783,715.870178 306.921448,688.522339 307.063721,653.686951 
	C307.290344,598.193848 307.158386,542.699097 307.101532,487.205200 
	C307.089294,475.259766 298.463684,466.240845 287.108246,465.902802 
	C275.306854,465.551453 265.877380,474.020081 265.632965,486.147827 
	C265.297455,502.797638 265.635925,519.461060 265.345215,536.842041 
	C265.449707,540.272034 265.554169,543.702026 265.457916,547.796204 
M647.790894,669.187988 
	C642.258911,664.303589 640.439514,658.038696 640.458984,650.837524 
	C640.550903,616.847961 640.503296,582.857971 640.503113,548.868164 
	C640.503052,528.207703 640.674622,507.545227 640.430603,486.887634 
	C640.283325,474.415375 631.083130,465.661133 619.130310,465.883240 
	C607.594482,466.097595 598.904602,475.215332 598.894104,487.458618 
	C598.846252,543.107544 598.704834,598.757202 598.944580,654.405090 
	C599.088074,687.711975 626.537659,715.491638 659.659851,715.756714 
	C701.643860,716.092773 743.633057,715.898987 785.619019,715.715759 
	C789.090881,715.700623 792.555481,714.021729 796.719971,713.049866 
	C799.685669,709.448364 802.651367,705.846924 806.039673,701.611633 
	C810.116577,686.529053 800.667725,674.155884 784.877441,674.135254 
	C745.106384,674.083374 705.335266,674.144714 665.564209,674.101624 
	C662.086304,674.097839 658.609009,673.660156 654.622986,673.037048 
	C652.449036,671.949341 650.275024,670.861694 647.790894,669.187988 
M473.866882,691.020264 
	C473.869965,621.716919 473.873596,552.413574 473.875824,483.110199 
	C473.876678,456.621490 473.953766,430.132446 473.836578,403.644257 
	C473.784882,391.960114 465.378845,383.210114 454.066986,382.573181 
	C443.276062,381.965546 433.886078,389.647278 432.363434,400.508453 
	C431.996063,403.128937 432.124451,405.827179 432.124207,408.489685 
	C432.116394,485.790009 432.120819,563.090332 432.124146,640.390625 
	C432.126099,686.203430 432.082764,732.016235 432.163605,777.828918 
	C432.184967,789.928589 441.137177,798.993713 452.744934,799.123352 
	C464.180206,799.251038 473.700439,790.479492 473.780090,778.835754 
	C473.972565,750.686584 473.765869,722.534729 473.951019,693.927429 
	C473.869812,693.264038 473.788605,692.600586 473.866882,691.020264 
M566.247192,769.086609 
	C564.153748,764.726929 562.060364,760.367310 559.990845,755.211426 
	C559.037415,748.480957 557.286560,741.754028 557.257141,735.019531 
	C557.026978,682.375427 557.127686,629.729980 557.125549,577.084900 
	C557.123779,533.435669 557.082092,489.786377 557.155884,446.137268 
	C557.168701,438.560944 554.461487,432.437500 548.334778,428.085510 
	C541.673767,423.353943 534.371826,422.703461 527.066467,426.389832 
	C519.398438,430.259216 515.555664,436.803589 515.518555,445.383179 
	C515.441589,463.207031 515.489868,481.031403 515.489624,498.855560 
	C515.488586,577.157471 515.510681,655.459351 515.471802,733.761230 
	C515.462646,752.225769 518.857178,769.813904 528.254639,786.665588 
	C530.141907,789.497498 532.029114,792.329407 534.048828,795.827820 
	C554.915833,824.837646 583.241577,840.326843 618.932129,840.728149 
	C667.242676,841.271301 715.564087,840.924866 763.880249,840.770508 
	C767.981873,840.757385 769.794739,842.029724 771.471191,845.771423 
	C783.663696,872.984131 812.910828,887.433350 842.003113,880.940125 
	C870.177795,874.651672 890.839478,848.545288 890.515442,819.643982 
	C890.186768,790.327881 869.408142,764.710266 841.285095,758.948669 
	C811.786560,752.905273 783.049927,767.516357 771.164001,794.879578 
	C769.733643,798.172485 768.160095,799.212463 764.642334,799.203430 
	C718.335693,799.083801 672.023865,798.731201 625.723633,799.290710 
	C600.528015,799.595154 580.744446,790.627808 566.247192,769.086609 
M553.908203,78.799759 
	C556.261536,80.225258 558.614807,81.650757 561.191956,83.552444 
	C561.510559,83.679665 561.829224,83.806892 562.402039,84.507675 
	C563.616638,85.305847 564.831177,86.104019 566.427429,87.452782 
	C590.463562,105.930557 609.152283,128.757278 622.255066,156.122223 
	C634.227478,181.126221 640.096252,207.515884 640.501343,235.214218 
	C640.707642,249.314377 649.114563,257.397247 663.102905,257.499817 
	C680.742310,257.629120 698.381775,257.748016 716.750977,258.163849 
	C720.855591,258.672577 724.960205,259.181305 729.828796,259.967194 
	C730.967529,260.216553 732.105896,260.467834 733.245117,260.714996 
	C813.314392,278.087708 863.279541,356.539154 845.083008,436.231262 
	C840.992798,454.144653 833.289001,470.443665 822.958679,486.196472 
	C821.919922,487.771362 820.881165,489.346252 819.263794,491.242950 
	C816.790527,494.385437 814.317322,497.527924 811.243774,500.981354 
	C809.454102,502.970306 807.664490,504.959259 805.251282,507.176727 
	C776.876648,534.660400 742.813965,548.498718 703.362671,549.279480 
	C703.362671,563.285828 703.362671,576.955200 703.362671,591.414368 
	C711.868225,590.538330 719.927368,589.708252 728.756409,589.045898 
	C730.500366,588.679871 732.244263,588.313904 734.742981,588.028870 
	C735.482056,587.882080 736.221191,587.735291 737.626892,587.687744 
	C739.127258,587.300049 740.627625,586.912354 742.953796,586.496155 
	C745.972168,585.672180 748.990601,584.848206 752.665771,584.135681 
	C753.461487,583.819336 754.257141,583.502991 755.848572,583.204041 
	C773.232727,578.204590 789.530579,570.768555 804.605652,560.812622 
	C842.964111,535.479858 869.261719,501.032715 882.907959,456.306519 
	C883.567444,453.534973 884.226929,450.763428 885.198242,447.399902 
	C885.221924,446.960449 885.245605,446.521027 885.724609,445.521118 
	C886.109985,443.343872 886.495300,441.166595 887.169861,438.237366 
	C898.682983,367.607025 877.999329,308.031891 824.369690,260.799438 
	C789.934021,230.471359 748.827026,216.121780 702.888245,215.870117 
	C695.767273,215.831116 688.645935,215.864670 681.573975,215.864670 
	C673.566345,107.961990 579.057068,5.458969 448.166077,7.591635 
	C400.519836,8.367957 357.027252,22.941759 318.651093,51.235943 
	C263.248199,92.083702 232.365326,147.357178 224.532471,215.462585 
	C223.933273,215.643219 223.624557,215.816299 223.314987,215.817825 
	C216.816498,215.849731 210.313950,215.719208 203.819977,215.900330 
	C125.300293,218.090439 68.029182,254.332321 33.163467,324.506409 
	C15.045527,360.972321 11.263113,399.959473 19.211784,440.755310 
	C20.797092,446.507172 22.382402,452.259003 23.946705,458.788361 
	C52.137177,549.707031 138.777420,593.548523 202.658142,590.130188 
	C202.658142,576.540955 202.658142,562.962158 202.658142,549.253662 
	C201.496597,549.180969 200.683807,549.106934 199.869522,549.082336 
	C139.570618,547.257629 87.994125,510.987244 66.747337,454.722504 
	C62.666203,443.915070 60.812168,432.266632 58.090446,420.109283 
	C57.704533,415.729034 57.318619,411.348785 57.101990,406.052155 
	C57.332912,400.908020 57.394787,395.749847 57.820560,390.621887 
	C62.804241,330.598511 105.402824,278.697662 163.591888,263.230743 
	C177.590271,259.509918 192.471359,259.109924 207.299911,257.493988 
	C207.885895,257.388062 208.471863,257.282135 209.834351,257.409943 
	C210.905136,257.354614 211.975937,257.299286 213.792557,257.566010 
	C217.888214,257.446655 221.983887,257.327301 226.956848,257.477081 
	C232.922089,257.482910 238.893234,257.661407 244.851303,257.457794 
	C256.308289,257.066132 264.586731,249.211075 265.394379,237.892975 
	C265.888916,230.963226 265.959167,224.003220 266.630249,216.395996 
	C267.097351,212.265167 267.564453,208.134338 268.363098,203.429413 
	C268.401276,202.996323 268.439484,202.563232 268.845551,201.511581 
	C269.458405,198.332123 270.071228,195.152649 271.024353,191.271805 
	C284.252869,141.309433 312.917389,102.808289 356.914459,75.732414 
	C372.862183,65.918167 390.213593,59.399986 408.937469,54.267593 
	C410.963318,53.792542 412.989197,53.317490 415.577271,52.951706 
	C416.105438,52.774078 416.633636,52.596455 418.026215,52.450184 
	C422.686768,51.643406 427.347290,50.836628 432.914154,50.185936 
	C455.647736,47.840054 478.090240,49.493557 500.226288,55.163803 
	C519.213013,60.027332 536.800720,68.153320 553.908203,78.799759 
M15.555518,696.208984 
	C16.401728,705.424927 21.187630,711.808594 29.879263,714.749023 
	C38.000484,717.496643 45.422695,715.521790 51.349380,709.343872 
	C57.294979,703.146240 58.670650,695.668518 55.793537,687.625183 
	C52.560417,678.586487 42.945351,672.953186 33.617813,674.311768 
	C23.019495,675.855469 16.298456,683.687805 15.555518,696.208984 
M868.661194,674.128906 
	C867.189514,674.384949 865.689941,674.535278 864.250549,674.914001 
	C853.483093,677.747192 846.826294,688.789917 849.316406,699.618225 
	C851.860535,710.681213 862.916870,717.745056 873.932312,715.345032 
	C884.259033,713.095093 891.174927,703.931335 890.410217,693.511108 
	C889.604553,682.533142 881.604675,675.103882 868.661194,674.128906 
M436.416992,849.010986 
	C430.645996,858.248535 430.717804,866.920044 436.627869,874.491333 
	C442.026489,881.407288 451.107178,884.175964 459.444489,881.447937 
	C467.760132,878.727112 473.515594,871.121399 473.869049,862.386353 
	C474.208099,854.005798 469.112457,845.978882 461.277252,842.551086 
	C452.785645,838.836060 444.168213,840.923767 436.416992,849.010986 
z"/>
<path fill="#020202" opacity="1.000000" stroke="none" 
	d="
M727.986511,588.878174 
	C719.927368,589.708252 711.868225,590.538330 703.362671,591.414368 
	C703.362671,576.955200 703.362671,563.285828 703.362671,549.279480 
	C742.813965,548.498718 776.876648,534.660400 805.918152,507.129761 
	C808.680908,510.732086 810.728455,514.410583 812.903992,518.011719 
	C813.506104,519.008301 814.488708,519.775024 815.296753,520.647217 
	C815.691650,519.416504 816.487854,518.159363 816.408813,516.959900 
	C816.137756,512.847168 818.827393,510.688446 823.128906,511.316589 
	C824.308105,511.488800 825.709106,510.141510 827.569397,509.210785 
	C821.579956,505.957916 816.711975,503.314178 811.844055,500.670410 
	C814.317322,497.527924 816.790527,494.385437 819.832031,491.257812 
	C820.615051,492.153473 820.971619,493.026855 821.018127,493.916443 
	C821.164490,496.718079 820.566895,499.736145 821.420105,502.280579 
	C822.625427,505.875397 827.947876,507.089844 831.665649,505.117950 
	C834.914551,503.394775 837.551392,499.972992 835.499634,497.135010 
	C832.335632,492.758911 827.561462,489.546875 823.470276,485.841095 
	C833.289001,470.443665 840.992798,454.144653 845.083008,436.231262 
	C863.279541,356.539154 813.314392,278.087708 733.245117,260.714996 
	C732.105896,260.467834 730.967529,260.216553 729.444458,259.489807 
	C729.036621,258.338348 729.013184,257.664337 729.389282,256.966370 
	C733.387512,258.017059 736.973694,258.833130 739.431335,254.872009 
	C739.932739,254.063858 739.917786,252.935303 740.140808,251.954437 
	C739.159912,252.110535 738.182495,252.295563 737.197327,252.416519 
	C735.309021,252.648407 732.269592,253.629654 731.763672,252.891312 
	C730.703552,251.344193 730.896606,248.889984 730.734680,246.795914 
	C730.652222,245.728714 730.915405,244.634766 731.095764,242.810410 
	C724.266479,247.559845 726.174866,252.248016 728.644592,257.001404 
	C721.335205,253.035614 720.582581,253.089569 716.021240,257.871399 
	C698.381775,257.748016 680.742310,257.629120 663.102905,257.499817 
	C649.114563,257.397247 640.707642,249.314377 640.501343,235.214218 
	C640.096252,207.515884 634.227478,181.126221 622.255066,156.122223 
	C609.152283,128.757278 590.463562,105.930557 566.389526,86.882286 
	C567.570679,84.503761 568.789856,82.695724 570.008972,80.887695 
	C569.671265,80.549377 569.333557,80.211060 568.995850,79.872742 
	C566.713196,81.226532 564.430481,82.580322 562.147827,83.934113 
	C561.829224,83.806892 561.510559,83.679665 561.061401,82.951675 
	C559.518921,79.930603 558.004272,77.604927 561.097412,75.155609 
	C561.788818,74.608131 561.707458,73.084747 562.330017,72.036942 
	C564.323669,73.413528 565.883850,74.890343 567.640625,76.075737 
	C569.155090,77.097626 570.893555,77.787659 572.532959,78.624420 
	C572.873352,76.835747 573.213806,75.047066 573.611450,72.958069 
	C574.886902,72.958069 576.586731,73.186356 578.177734,72.869118 
	C579.076233,72.689987 579.795654,71.613373 580.595764,70.941017 
	C579.754944,70.306335 578.987061,69.296448 578.058044,69.116005 
	C576.191101,68.753418 574.236267,68.843285 572.229675,68.741989 
	C572.123474,66.803329 572.306580,65.400230 571.902039,64.194237 
	C571.548889,63.141212 570.533936,62.310181 569.811340,61.381077 
	C569.213501,62.434208 568.300354,63.431469 568.101196,64.555229 
	C567.876221,65.824974 568.292908,67.208389 568.556274,69.761650 
	C566.245422,67.654808 564.985229,66.089638 563.362000,65.155556 
	C562.024536,64.385956 560.256836,64.364136 558.679810,64.010925 
	C559.050354,65.435760 559.276917,66.919960 559.832581,68.268524 
	C560.377197,69.590240 561.256775,70.773903 561.607849,72.022202 
	C559.526733,73.086678 557.741028,74.034752 556.158386,75.247803 
	C555.136169,76.031288 554.411438,77.202904 553.553406,78.200592 
	C536.800720,68.153320 519.213013,60.027332 500.226288,55.163803 
	C478.090240,49.493557 455.647736,47.840054 432.458435,49.722336 
	C431.504181,47.329479 431.005676,45.400227 430.451904,43.257072 
	C438.552917,45.997593 442.759613,44.080585 442.063232,37.893169 
	C440.956390,38.422779 439.956329,39.309490 438.982117,39.282005 
	C436.985657,39.225685 434.903778,38.909283 433.101562,38.132607 
	C432.756226,37.983780 433.623535,35.237022 433.762573,33.673790 
	C433.858246,32.598339 433.662445,31.496956 433.596954,30.407166 
	C432.477386,30.804245 430.632233,30.929607 430.364136,31.645550 
	C429.219666,34.701561 428.541046,37.932045 427.601624,41.437943 
	C426.815826,41.352566 425.173950,40.850864 423.632202,41.066093 
	C418.602478,41.768234 416.018982,42.843872 417.161804,52.418823 
	C416.633636,52.596455 416.105438,52.774078 415.295135,52.539539 
	C414.079620,47.012836 409.942963,50.522282 407.544128,49.353142 
	C407.744476,51.001057 407.944794,52.648968 408.145081,54.296883 
	C390.213593,59.399986 372.862183,65.918167 356.914459,75.732414 
	C312.917389,102.808289 284.252869,141.309433 270.520477,191.669525 
	C266.894409,195.022507 264.445190,198.080688 268.477661,202.130142 
	C268.439484,202.563232 268.401276,202.996323 267.829712,203.652954 
	C264.627319,201.526718 261.335754,200.952637 258.898651,203.301422 
	C257.211212,204.927658 256.181091,207.998474 256.159515,210.435333 
	C256.111389,215.870850 257.995697,216.880402 266.219971,217.056793 
	C265.959167,224.003220 265.888916,230.963226 265.394379,237.892975 
	C264.586731,249.211075 256.308289,257.066132 244.851303,257.457794 
	C238.893234,257.661407 232.922089,257.482910 226.515930,256.994598 
	C226.026337,253.673889 225.977661,250.835678 226.333939,248.042435 
	C230.303055,249.198151 233.940842,250.244766 236.739960,246.674927 
	C237.817795,245.300293 238.369492,243.513123 239.160919,241.913910 
	C238.785141,241.767059 238.409378,241.620224 238.033600,241.473373 
	C235.748596,242.730804 233.463608,243.988251 231.178619,245.245697 
	C230.614029,244.505600 230.049454,243.765518 229.484863,243.025436 
	C231.913773,241.658691 234.342667,240.291946 236.406586,239.130569 
	C233.881012,234.252457 231.349136,233.411453 227.525330,234.910446 
	C223.505646,236.486252 223.830917,239.535233 224.131409,242.710632 
	C224.270035,244.175430 224.702820,245.612411 224.638901,246.987091 
	C219.634521,242.511795 216.278610,246.431778 212.942261,248.940521 
	C212.235382,248.463501 211.860901,248.051727 211.410248,247.935608 
	C209.880157,247.541428 208.323135,247.251755 206.776413,246.922150 
	C207.353455,248.274185 207.764709,249.731842 208.543976,250.955048 
	C209.927185,253.126328 211.533661,255.155396 213.046722,257.243958 
	C211.975937,257.299286 210.905136,257.354614 209.302429,257.037659 
	C208.162506,256.837799 207.554504,257.010284 206.946503,257.182739 
	C192.471359,259.109924 177.590271,259.509918 163.591888,263.230743 
	C105.402824,278.697662 62.804241,330.598511 57.820560,390.621887 
	C57.394787,395.749847 57.332912,400.908020 56.634041,406.558228 
	C54.565323,407.847565 52.964550,408.630859 51.307995,409.441406 
	C50.910713,409.166321 50.547031,408.746857 50.107948,408.641418 
	C48.708862,408.305481 47.281731,408.086365 45.865440,407.822083 
	C46.360096,409.163452 46.609119,410.675873 47.399647,411.811249 
	C49.139313,414.309784 51.152435,416.617981 52.669571,418.963837 
	C51.008816,418.594543 49.708462,418.337402 48.460602,417.922363 
	C44.923328,416.745880 42.341293,417.630035 40.894573,421.221069 
	C39.334454,425.093506 39.154949,428.755249 43.042889,431.360413 
	C46.160221,433.449219 49.225433,433.931030 52.532444,431.097504 
	C55.978283,428.144958 54.713409,424.444794 55.363220,420.957336 
	C56.463467,420.982819 57.197086,420.994476 57.930710,421.006165 
	C60.812168,432.266632 62.666203,443.915070 66.747337,454.722504 
	C87.994125,510.987244 139.570618,547.257629 199.869522,549.082336 
	C200.683807,549.106934 201.496597,549.180969 202.658142,549.253662 
	C202.658142,562.962158 202.658142,576.540955 202.658142,590.130188 
	C138.777420,593.548523 52.137177,549.707031 24.233768,458.177338 
	C24.646713,457.262909 24.894976,456.953552 24.880493,456.657013 
	C24.557961,450.050781 24.745033,449.971832 31.524929,449.548950 
	C32.752274,449.472382 33.892818,448.004120 36.294952,446.324066 
	C29.711836,443.862244 24.506353,441.915619 19.300873,439.968964 
	C11.263113,399.959473 15.045527,360.972321 33.163467,324.506409 
	C68.029182,254.332321 125.300293,218.090439 203.819977,215.900330 
	C210.313950,215.719208 216.816498,215.849731 223.314987,215.817825 
	C223.624557,215.816299 223.933273,215.643219 224.532471,215.462585 
	C232.365326,147.357178 263.248199,92.083702 318.651093,51.235943 
	C357.027252,22.941759 400.519836,8.367957 448.166077,7.591635 
	C579.057068,5.458969 673.566345,107.961990 681.573975,215.864670 
	C688.645935,215.864670 695.767273,215.831116 702.888245,215.870117 
	C748.827026,216.121780 789.934021,230.471359 824.369690,260.799438 
	C877.999329,308.031891 898.682983,367.607025 886.652344,438.614136 
	C884.970886,437.703552 883.806824,436.416168 882.642822,435.128754 
	C882.231262,434.134796 881.098206,433.822754 879.992981,433.901764 
	C878.438599,434.012939 876.904846,434.414307 875.362305,434.691589 
	C876.176697,437.045532 876.410583,439.931732 877.955078,441.616241 
	C879.810059,443.639282 882.781372,444.638855 885.269287,446.081573 
	C885.245605,446.521027 885.221924,446.960449 884.684875,447.649750 
	C879.865662,442.440247 874.332642,446.710052 868.015320,446.827637 
	C870.489380,443.665131 872.046570,441.674561 874.382568,438.688507 
	C872.232239,438.810242 870.195435,438.376801 869.717590,439.049927 
	C867.890991,441.623108 866.247314,444.449768 865.289978,447.424591 
	C865.065735,448.121368 867.695984,450.620544 869.194336,450.803223 
	C872.278931,451.179504 875.485901,450.551910 878.596924,450.340515 
	C878.720764,451.244629 878.909729,451.643188 878.786194,451.875977 
	C877.734009,453.859406 876.624939,455.812683 875.533020,457.775024 
	C877.871948,457.471985 880.210815,457.168915 882.549744,456.865845 
	C869.261719,501.032715 842.964111,535.479858 804.605652,560.812622 
	C789.530579,570.768555 773.232727,578.204590 755.455261,582.858276 
	C754.614929,580.481445 754.167908,578.450378 753.660339,576.144165 
	C756.617920,576.280151 760.417908,578.685486 761.664307,573.434021 
	C758.718262,572.729248 756.019531,572.083679 753.258728,571.423218 
	C752.851990,568.942688 752.475769,566.648254 752.099609,564.353882 
	C751.527771,564.299377 750.955994,564.244873 750.384155,564.190430 
	C749.949768,566.993469 749.515381,569.796509 749.003784,573.097778 
	C746.181885,570.574768 743.562134,568.232544 740.942383,565.890259 
	C740.364136,566.174377 739.785889,566.458557 739.207642,566.742676 
	C739.766968,568.333374 739.949280,570.232849 740.953613,571.459167 
	C744.486206,575.772461 748.301208,579.854492 752.009033,584.024292 
	C748.990601,584.848206 745.972168,585.672180 742.419617,586.135986 
	C738.268127,582.388794 740.861145,579.323975 743.455994,575.298889 
	C741.321228,575.717041 740.243347,575.656799 739.486633,576.120605 
	C734.729858,579.035706 735.955322,583.352783 736.960266,587.588501 
	C736.221191,587.735291 735.482056,587.882080 734.302612,587.631653 
	C731.128662,585.011658 729.106628,585.332825 727.986511,588.878174 
M853.220520,468.908051 
	C851.143921,468.788452 848.355469,467.762299 847.129089,468.725342 
	C843.919556,471.245911 841.464172,471.286163 838.153137,468.153503 
	C837.782288,470.279785 837.610291,472.343445 838.522156,473.651794 
	C840.381042,476.319122 842.823853,478.579468 844.247498,480.994293 
	C843.331909,480.663330 842.337524,480.465698 841.514160,479.978790 
	C837.522583,477.618317 834.837891,479.699036 832.709717,482.742035 
	C829.798401,486.904999 830.472961,489.642944 834.894165,493.388092 
	C837.759888,495.815643 840.339783,495.435669 843.359253,493.265503 
	C847.732056,490.122711 845.909363,485.908112 846.606079,482.284973 
	C849.744446,486.230377 852.701843,485.025238 854.822510,481.497955 
	C856.409485,478.858521 857.135498,475.701477 858.389099,472.394531 
	C866.982727,470.981079 868.607483,469.860229 868.091309,464.950928 
	C865.903503,465.976349 863.818481,466.953583 861.733459,467.930847 
	C861.709717,466.147217 862.245544,465.356659 862.872742,464.646759 
	C864.436523,462.876678 867.389221,461.270264 864.510803,458.600220 
	C862.018127,456.287994 859.363403,456.454773 856.525146,458.839783 
	C853.039551,461.768585 854.257324,465.481262 854.000000,469.000000 
	C854.000000,469.000000 853.997559,469.002441 853.220520,468.908051 
M38.151344,429.351959 
	C36.349072,427.655731 34.614178,425.877502 32.706211,424.309937 
	C32.078403,423.794067 31.002708,423.823364 30.131813,423.603363 
	C29.901516,424.628571 29.531187,425.645660 29.471437,426.680725 
	C29.362701,428.564392 29.890888,430.601715 29.347914,432.320496 
	C27.994520,436.604706 29.009844,440.875580 32.288216,442.659271 
	C37.422394,445.452667 40.399586,444.833374 43.833900,439.534424 
	C46.724308,435.074646 41.895237,433.797150 39.904442,431.397217 
	C39.481163,430.886902 39.003883,430.421387 38.151344,429.351959 
M845.463318,311.122986 
	C846.669434,313.192902 847.875549,315.262817 849.664429,318.332916 
	C852.472107,307.556671 852.472107,307.556671 859.846069,307.296753 
	C859.705444,306.362457 859.871582,304.913330 859.387695,304.647583 
	C854.626343,302.032410 849.820312,299.471313 844.861206,297.267883 
	C843.942444,296.859650 841.951843,297.800446 841.073914,298.713104 
	C840.417480,299.395660 840.312805,301.222504 840.733704,302.211609 
	C841.950256,305.070435 843.556458,307.763428 845.463318,311.122986 
M439.849945,32.693329 
	C442.085205,33.996117 444.320496,35.298908 446.555756,36.601692 
	C446.721405,34.917461 446.887024,33.233227 447.064026,31.433392 
	C453.005768,30.458216 453.005768,30.458216 454.383118,27.646353 
	C446.143127,25.872105 446.143127,25.872105 443.570374,17.803291 
	C442.029297,21.181036 441.028778,23.374033 440.030182,25.562750 
	C436.763977,25.314566 435.759033,19.205568 430.036194,22.463142 
	C433.442078,25.941271 436.452362,29.015409 439.849945,32.693329 
M744.313843,246.105713 
	C744.411743,245.433273 744.421570,244.209885 744.621887,244.177887 
	C745.918396,243.970642 747.321655,244.260468 748.561218,243.919403 
	C749.659241,243.617264 750.590271,242.708191 751.594971,242.067017 
	C750.633728,241.384796 749.755127,240.350159 748.692383,240.101074 
	C747.000793,239.704590 745.186523,239.831619 744.317688,239.785095 
	C742.930115,237.126648 741.954041,235.256714 740.978027,233.386765 
	C740.170349,235.687271 739.362671,237.987778 738.416687,240.682037 
	C737.115845,239.158112 735.780762,237.114929 733.970276,235.665771 
	C732.995178,234.885315 731.205444,235.122635 729.783325,234.900726 
	C729.966125,236.204742 729.686707,237.906418 730.409180,238.746216 
	C734.168335,243.115601 738.182678,247.265488 742.108215,251.491806 
	C742.772339,251.324875 743.436462,251.157944 744.100647,250.991013 
	C744.353882,249.498474 744.607178,248.005951 744.313843,246.105713 
M236.464935,226.911118 
	C240.558273,227.258759 244.651611,227.606400 250.070816,228.066635 
	C247.606857,230.250595 245.909180,231.755341 243.658966,233.749847 
	C244.668732,234.507584 246.152283,235.951782 246.407578,235.760117 
	C248.459351,234.219543 250.891144,232.676498 251.971817,230.516388 
	C252.797211,228.866577 252.563873,225.709244 251.440369,224.336411 
	C250.309570,222.954651 247.507919,222.517166 245.418854,222.466156 
	C243.477463,222.418747 241.510315,223.426407 238.279358,224.323639 
	C240.362198,220.646667 241.715729,218.257202 243.069275,215.867737 
	C235.462708,217.632156 234.023193,220.310516 236.464935,226.911118 
M245.822311,214.832657 
	C246.538498,216.796799 255.802704,224.314590 257.486877,223.903717 
	C259.131409,223.502518 260.596069,222.364044 262.398346,221.412704 
	C261.350372,220.212799 261.082672,219.598434 260.699219,219.514786 
	C256.810791,218.666672 252.669373,218.336212 253.294418,212.431717 
	C253.350388,211.903015 249.280258,210.810959 247.049850,210.354187 
	C246.815872,210.306290 246.060730,212.803223 245.822311,214.832657 
z"/>
<path fill="#020202" opacity="1.000000" stroke="none" 
	d="
M528.173523,785.986511 
	C518.857178,769.813904 515.462646,752.225769 515.471802,733.761230 
	C515.510681,655.459351 515.488586,577.157471 515.489624,498.855560 
	C515.489868,481.031403 515.441589,463.207031 515.518555,445.383179 
	C515.555664,436.803589 519.398438,430.259216 527.066467,426.389832 
	C534.371826,422.703461 541.673767,423.353943 548.334778,428.085510 
	C554.461487,432.437500 557.168701,438.560944 557.155884,446.137268 
	C557.082092,489.786377 557.123779,533.435669 557.125549,577.084900 
	C557.127686,629.729980 557.026978,682.375427 557.257141,735.019531 
	C557.286560,741.754028 559.037415,748.480957 559.680054,755.640625 
	C557.578857,756.069824 555.788391,756.069824 553.286438,756.069824 
	C553.620667,758.461060 553.979797,761.030579 554.151794,762.261414 
	C557.202820,764.503723 559.166626,766.136780 561.318359,767.465515 
	C562.907471,768.446838 564.741516,769.031494 566.466492,769.792847 
	C580.744446,790.627808 600.528015,799.595154 625.723633,799.290710 
	C672.023865,798.731201 718.335693,799.083801 764.642334,799.203430 
	C768.160095,799.212463 769.733643,798.172485 771.164001,794.879578 
	C783.049927,767.516357 811.786560,752.905273 841.285095,758.948669 
	C869.408142,764.710266 890.186768,790.327881 890.515442,819.643982 
	C890.839478,848.545288 870.177795,874.651672 842.003113,880.940125 
	C812.910828,887.433350 783.663696,872.984131 771.471191,845.771423 
	C769.794739,842.029724 767.981873,840.757385 763.880249,840.770508 
	C715.564087,840.924866 667.242676,841.271301 618.932129,840.728149 
	C583.241577,840.326843 554.915833,824.837646 534.205688,795.215576 
	C536.123108,794.731140 538.150696,795.474487 539.585754,794.852112 
	C542.170288,793.731140 544.556274,791.964478 546.657104,790.061401 
	C547.125610,789.636963 546.071167,787.531372 545.721741,786.214294 
	C543.367249,787.850098 541.693604,789.012939 540.019958,790.175720 
	C539.486633,788.712891 539.631958,788.089722 539.978516,787.612671 
	C541.395447,785.662354 544.906982,784.012878 541.529480,781.209595 
	C538.680542,778.844910 535.798645,779.653320 533.191467,782.226135 
	C531.717285,783.680786 529.858887,784.745911 528.173523,785.986511 
M836.344727,839.080811 
	C842.060974,836.827271 845.299805,832.197266 848.738281,826.999023 
	C854.664001,826.158508 857.507568,822.287659 855.557251,817.317749 
	C854.085205,813.566589 851.348389,811.121094 846.556946,810.522827 
	C840.952576,801.640564 832.946106,797.724731 824.097534,799.538452 
	C815.275635,801.346802 808.630066,808.132202 807.370605,817.040710 
	C806.103149,826.006409 810.141541,832.704346 817.065063,838.759583 
	C818.485779,841.737854 819.745789,844.808533 821.385254,847.661133 
	C822.432251,849.483093 824.040527,850.982483 825.397034,852.626526 
	C825.569946,850.607483 825.742798,848.588440 825.907715,846.662354 
	C826.900818,844.882385 827.955139,842.992676 829.654480,840.882935 
	C830.103577,840.914429 830.552734,840.945923 831.073975,841.708618 
	C832.165649,842.373352 833.257324,843.038147 834.348938,843.702881 
	C834.840942,842.290222 835.332947,840.877563 836.344727,839.080811 
M872.247864,799.103088 
	C873.377441,797.025208 874.507080,794.947266 876.274048,791.696899 
	C873.410645,791.119873 870.729492,789.817505 868.371704,790.255554 
	C862.620850,791.324036 864.749451,797.118225 863.943787,799.191528 
	C859.312378,800.779480 855.997864,801.915894 852.147339,803.236145 
	C851.298401,802.741394 849.686401,801.801880 848.074341,800.862427 
	C847.665466,801.134460 847.256592,801.406433 846.847717,801.678467 
	C847.443176,803.342102 847.620300,805.384216 848.716064,806.595093 
	C851.492065,809.662598 854.775024,812.264465 857.673706,815.229980 
	C860.026306,817.636841 861.847473,817.008728 864.001709,814.954956 
	C867.946472,811.194275 867.675110,806.986755 865.066589,802.174316 
	C873.276428,805.852356 878.178955,803.875854 878.318604,796.770874 
	C876.272705,797.800842 874.494690,798.695923 872.247864,799.103088 
M545.039856,613.538940 
	C542.726990,611.183350 540.573425,608.633362 538.035278,606.552612 
	C536.728027,605.480896 534.736145,605.244446 533.053589,604.630554 
	C533.233398,606.221313 533.550537,607.812195 533.549072,609.402771 
	C533.547913,610.650940 533.144653,611.897339 532.934448,613.146912 
	C532.637207,614.914124 531.914124,616.745911 532.154236,618.439270 
	C532.672729,622.095093 535.082581,624.285278 538.733215,624.950317 
	C542.620239,625.658264 544.865784,623.472168 546.798096,620.464417 
	C548.516846,617.789062 547.834473,615.824463 545.039856,613.538940 
M522.192505,632.274414 
	C523.055176,634.074219 523.800537,635.944336 524.822449,637.648682 
	C525.487976,638.758667 526.555725,639.627502 527.443298,640.604370 
	C527.768188,639.328857 528.483704,638.009888 528.347778,636.785583 
	C527.858337,632.376953 530.067749,630.078857 534.520020,630.223877 
	C535.995789,630.271912 537.504456,629.309814 538.998047,628.809570 
	C533.621582,624.895874 528.613953,622.367065 523.492493,620.094666 
	C522.380554,619.601257 520.270508,619.490662 519.665466,620.155334 
	C518.738403,621.173767 518.066467,623.218567 518.451233,624.469360 
	C519.216064,626.955505 520.774597,629.197510 522.192505,632.274414 
M536.288879,441.196533 
	C539.724060,440.934082 543.159180,440.671600 548.281006,440.280273 
	C545.577759,443.266388 543.856506,445.167725 542.014587,447.202362 
	C542.684753,447.821625 543.426086,448.701416 543.571594,448.611938 
	C545.811157,447.235199 548.803528,446.180359 549.910522,444.128052 
	C550.937744,442.223633 550.660828,438.814148 549.559448,436.852783 
	C548.857910,435.603394 545.596924,435.386169 543.502625,435.440704 
	C541.508484,435.492584 539.539124,436.498169 537.558899,437.084442 
	C537.287415,436.542450 537.015991,436.000458 536.744507,435.458466 
	C538.392456,433.661194 540.040344,431.863922 541.877014,429.860840 
	C537.764587,427.596558 535.542053,430.341736 533.967407,432.806335 
	C532.169189,435.620758 532.179565,438.801605 536.288879,441.196533 
M550.614868,761.713013 
	C546.623169,759.654480 544.750610,763.120972 543.732910,765.375916 
	C542.842957,767.347839 543.281982,770.913940 544.623474,772.566711 
	C545.601013,773.771118 549.010803,773.181458 551.320007,773.066040 
	C553.057312,772.979065 554.768677,772.375366 556.491638,772.001770 
	C556.783142,772.571655 557.074707,773.141602 557.366211,773.711548 
	C555.348999,775.531738 553.331787,777.351929 551.334045,779.154541 
	C554.174194,782.176392 556.027161,780.399109 558.164124,778.432861 
	C560.631714,776.162659 562.278931,773.336426 560.410522,770.598694 
	C559.297363,768.967590 556.179749,768.252563 553.871521,768.014282 
	C551.499451,767.769348 549.015869,768.605469 546.581055,768.968506 
	C546.455688,768.582642 546.330322,768.196777 546.204956,767.810913 
	C547.749878,766.004395 549.294800,764.197876 550.614868,761.713013 
M527.458374,447.316315 
	C523.602539,448.628510 520.410278,450.596222 521.320557,455.371002 
	C521.992188,458.894135 527.597168,463.701599 530.282349,462.833496 
	C533.641968,461.747406 536.241455,459.435944 537.133728,454.152832 
	C534.903625,455.448578 533.892517,456.115326 532.813171,456.642334 
	C531.596191,457.236542 530.317871,457.704987 529.066223,458.228180 
	C528.896545,457.957184 528.726807,457.686218 528.557129,457.415222 
	C530.379761,455.240570 532.202454,453.065918 534.504028,450.319824 
	C531.965637,449.222961 530.054565,448.397125 527.458374,447.316315 
z"/>
<path fill="#020202" opacity="1.000000" stroke="none" 
	d="
M390.338928,605.155640 
	C390.396729,639.263000 390.610321,673.371155 390.442108,707.477295 
	C390.365875,722.925110 389.559479,738.370178 389.003632,753.813599 
	C388.938660,755.618469 388.358215,757.404846 387.519196,759.623901 
	C381.091309,764.142090 380.547699,766.366028 384.322693,771.089844 
	C384.315491,771.259094 384.308289,771.428406 383.762360,771.798462 
	C380.576050,770.258972 378.023560,768.340515 375.239960,766.855042 
	C373.888977,766.134155 372.105225,766.224182 370.655762,765.971252 
	C371.490936,769.094177 372.991913,771.474121 372.347443,772.846924 
	C369.284363,779.371521 370.942841,783.962769 377.021149,787.334717 
	C376.997681,787.518311 376.974182,787.701965 376.430725,787.767212 
	C371.595276,785.605713 367.379852,783.288757 362.913818,781.658081 
	C361.192902,781.029663 358.902435,781.961121 356.871460,782.181885 
	C357.097839,783.819275 356.929199,785.650513 357.620575,787.059814 
	C360.290253,792.501282 363.234406,797.808044 366.076294,803.165039 
	C348.730988,824.469177 326.150452,836.323914 299.135529,839.972717 
	C293.874084,840.683411 288.504547,840.825378 283.184326,840.832520 
	C235.857773,840.895813 188.531036,840.905151 141.204651,840.793396 
	C137.924881,840.785645 136.394302,841.660828 134.948532,844.772034 
	C123.999344,868.333862 105.475182,881.632996 79.435425,882.285156 
	C54.086746,882.920044 34.584732,871.355530 22.837975,848.898193 
	C10.891572,826.059204 13.186290,803.594421 28.511539,782.707886 
	C30.186211,785.881042 31.434767,788.844849 33.159039,792.937927 
	C34.339512,790.754517 35.603539,789.527039 35.481243,788.458252 
	C34.807575,782.570984 35.280811,782.009583 41.615852,781.881165 
	C42.604061,781.861145 43.575527,781.015015 44.554726,780.550903 
	C44.061062,779.600220 43.714798,778.523621 43.037052,777.730164 
	C42.160496,776.704041 41.019249,775.903992 39.995922,775.003296 
	C39.999863,775.000000 40.006184,774.992676 40.379601,775.032104 
	C44.868107,777.089844 48.779945,777.364075 52.403156,773.941223 
	C55.453880,771.058899 54.722740,768.016296 53.431358,764.901123 
	C58.337944,765.002930 63.041668,765.469849 64.038338,759.273499 
	C92.107025,751.799622 122.751907,767.175598 134.917328,795.061035 
	C136.257019,798.131836 137.652023,799.334961 141.070740,799.213318 
	C149.051819,798.929321 157.050140,799.130005 165.548721,799.578247 
	C167.714737,802.251038 168.232895,804.130798 166.913651,807.190247 
	C165.883698,809.578735 166.540039,813.534302 167.972153,815.850403 
	C168.933273,817.404785 172.669693,818.059204 174.958572,817.721558 
	C176.834259,817.444885 179.261566,815.407166 179.888123,813.608093 
	C180.610016,811.535278 179.622391,808.867126 179.387802,806.562134 
	C187.217072,807.852661 188.867065,806.957947 192.042618,799.335876 
	C219.181442,799.282104 246.320267,799.221802 273.459106,799.177368 
	C285.939178,799.156921 298.490967,799.761658 310.271271,794.357788 
	C334.890015,783.064697 348.572266,763.829224 348.715729,736.839417 
	C349.161011,653.079529 348.838226,569.315491 348.820007,485.553101 
	C348.817078,472.066559 348.751373,458.579041 348.891113,445.093811 
	C349.014313,433.201996 358.246216,424.005005 369.800598,424.209015 
	C371.649200,424.241638 373.481262,425.213074 375.617554,426.284088 
	C372.670929,431.702332 369.810944,436.609924 374.642731,441.995850 
	C372.225830,440.199585 370.310974,438.201233 368.072266,436.679321 
	C366.218658,435.419220 363.982941,434.721161 361.916534,433.774078 
	C362.421112,435.621033 362.925690,437.467987 363.489899,439.533295 
	C363.066284,440.410767 362.464020,441.574127 361.934723,442.769745 
	C360.138489,446.827362 360.892883,450.342346 364.660156,452.747833 
	C368.461121,455.174774 371.488556,453.892761 374.813263,450.935059 
	C378.577179,447.586609 375.317017,444.947021 375.393219,442.042725 
	C382.257599,443.969574 382.257599,443.969574 388.104858,435.953400 
	C388.900116,439.935638 390.374237,443.915619 390.387482,447.900452 
	C390.554047,497.960815 390.509521,548.021912 390.039429,598.574097 
	C385.271545,598.619812 380.983246,598.174133 376.012878,597.657593 
	C376.392975,596.206726 376.986053,593.942810 377.691223,591.250977 
	C373.543365,592.402344 371.766998,594.659607 372.506927,598.332214 
	C373.246796,602.004883 376.206299,602.079346 379.152832,601.771362 
	C381.334839,601.543213 383.503906,601.190918 385.678772,600.893982 
	C385.990417,601.333008 386.302063,601.772095 386.613708,602.211121 
	C384.933380,604.304077 383.253052,606.397034 381.572723,608.489990 
	C383.718903,608.508911 385.193268,607.478638 386.763519,606.624695 
	C387.888824,606.012817 389.142517,605.636902 390.338928,605.155640 
M97.354538,827.629272 
	C100.637260,818.470520 98.592613,810.538452 91.427711,804.132507 
	C85.111382,798.485046 76.076965,797.607544 68.571823,801.432739 
	C60.630421,805.480347 55.942841,814.473572 57.339752,822.982056 
	C58.842365,832.134338 65.568680,838.945190 74.714142,840.574951 
	C83.804672,842.194946 92.138557,837.637085 97.354538,827.629272 
M152.457092,819.113220 
	C154.339294,823.134216 156.079636,827.233154 158.214401,831.115234 
	C158.683731,831.968628 160.554596,832.051331 161.780029,832.489014 
	C161.759201,831.365479 161.812164,830.233643 161.688248,829.121582 
	C161.620331,828.512024 161.253937,827.935730 160.498734,826.009338 
	C164.496155,824.754822 168.170349,823.601746 171.844543,822.448669 
	C171.943161,822.008118 172.041794,821.567505 172.140427,821.126953 
	C166.601822,818.442200 161.241501,815.213501 155.445618,813.313599 
	C152.749832,812.429993 149.884613,814.564270 152.457092,819.113220 
z"/>
<path fill="#000000" opacity="1.000000" stroke="none" 
	d="
M473.720093,694.383911 
	C473.765869,722.534729 473.972565,750.686584 473.780090,778.835754 
	C473.700439,790.479492 464.180206,799.251038 452.744934,799.123352 
	C441.137177,798.993713 432.184967,789.928589 432.163605,777.828918 
	C432.082764,732.016235 432.126099,686.203430 432.124146,640.390625 
	C432.120819,563.090332 432.116394,485.790009 432.124207,408.489685 
	C432.124451,405.827179 431.996063,403.128937 432.363434,400.508453 
	C433.886078,389.647278 443.276062,381.965546 454.066986,382.573181 
	C465.378845,383.210114 473.784882,391.960114 473.836578,403.644257 
	C473.953766,430.132446 473.876678,456.621490 473.875824,483.110199 
	C473.873596,552.413574 473.869965,621.716919 473.440002,691.486572 
	C471.429413,692.870728 469.845703,693.788513 468.261993,694.706238 
	C468.467834,695.127380 468.673676,695.548523 468.879517,695.969666 
	C470.493042,695.441101 472.106567,694.912476 473.720093,694.383911 
M448.208923,705.986694 
	C447.251556,705.741211 446.301727,705.459961 445.335480,705.256592 
	C441.120880,704.369507 438.109741,706.316162 436.325836,709.820923 
	C434.650482,713.112488 437.276855,718.109009 441.266724,720.113037 
	C445.089233,722.032959 448.454376,721.055908 449.950134,717.300720 
	C451.064270,714.503479 450.702454,711.118408 451.793182,708.101562 
	C455.260223,708.985901 458.930634,710.721008 461.337372,706.308838 
	C461.879822,705.314392 461.928528,704.050598 462.204590,702.910889 
	C461.092651,703.145447 459.989258,703.512329 458.866852,703.584900 
	C456.989624,703.706177 455.100311,703.639648 453.216034,703.652161 
	C453.313904,701.765808 453.380249,699.877136 453.521606,697.994080 
	C453.605286,696.879089 453.807343,695.773010 453.956177,694.662903 
	C452.776978,694.815247 451.261078,694.552979 450.475830,695.190552 
	C446.706207,698.251282 447.578888,702.130005 448.208923,705.986694 
M458.499695,691.101257 
	C456.453156,689.292480 454.406616,687.483704 452.360046,685.674866 
	C451.852325,686.181030 451.344604,686.687195 450.836853,687.193359 
	C452.477386,689.179993 454.038849,691.238831 455.773590,693.139465 
	C460.580353,698.405884 461.451385,698.293762 465.317505,692.190186 
	C463.217896,691.993835 461.118317,691.797424 458.499695,691.101257 
M463.537231,699.279541 
	C463.281311,699.010498 463.025391,698.741516 462.769501,698.472473 
	C462.658234,698.578552 462.444336,698.771057 462.450531,698.778381 
	C462.689209,699.062134 462.948120,699.328979 463.537231,699.279541 
z"/>
<path fill="#020202" opacity="1.000000" stroke="none" 
	d="
M796.023499,713.115906 
	C792.555481,714.021729 789.090881,715.700623 785.619019,715.715759 
	C743.633057,715.898987 701.643860,716.092773 659.659851,715.756714 
	C626.537659,715.491638 599.088074,687.711975 598.944580,654.405090 
	C598.704834,598.757202 598.846252,543.107544 598.894104,487.458618 
	C598.904602,475.215332 607.594482,466.097595 619.130310,465.883240 
	C631.083130,465.661133 640.283325,474.415375 640.430603,486.887634 
	C640.674622,507.545227 640.503052,528.207703 640.503113,548.868164 
	C640.503296,582.857971 640.550903,616.847961 640.458984,650.837524 
	C640.439514,658.038696 642.258911,664.303589 647.919434,669.872131 
	C649.458191,673.853516 650.786316,677.190735 652.352966,680.411926 
	C652.641602,681.005310 653.896301,681.128784 654.705139,681.469116 
	C654.946289,680.629028 655.377319,679.791748 655.389709,678.948303 
	C655.416565,677.108521 655.230469,675.265625 655.131470,673.424011 
	C658.609009,673.660156 662.086304,674.097839 665.564209,674.101624 
	C705.335266,674.144714 745.106384,674.083374 784.877441,674.135254 
	C800.667725,674.155884 810.116577,686.529053 805.383179,701.856018 
	C802.329407,701.573364 799.932068,701.046387 797.625122,700.539246 
	C797.044922,697.981995 796.509033,695.619629 795.973083,693.257263 
	C795.445435,693.252197 794.917786,693.247070 794.390137,693.242004 
	C793.716003,695.571594 793.041870,697.901184 792.184082,700.865417 
	C790.375183,699.353760 788.872375,697.884766 787.151062,696.746216 
	C786.245483,696.147156 784.957825,696.125732 783.842712,695.843506 
	C783.987000,697.146240 783.650574,698.872437 784.359802,699.677490 
	C787.207275,702.909790 790.452698,705.787720 793.391846,708.944824 
	C794.492615,710.127136 795.159058,711.713684 796.023499,713.115906 
M626.005005,526.441223 
	C625.513672,525.352539 625.022339,524.263855 624.530945,523.175171 
	C623.288757,525.187378 622.046570,527.199585 620.472046,529.750122 
	C619.238831,528.580505 617.848022,527.015442 616.200134,525.798462 
	C615.325256,525.152405 614.004517,525.110107 612.885071,524.795288 
	C613.003540,526.102356 612.622437,527.859436 613.325439,528.639954 
	C616.666626,532.349548 620.255371,535.843262 623.875610,539.288208 
	C624.579224,539.957825 625.814575,540.068726 626.804626,540.437317 
	C626.984741,539.275208 627.321228,538.108887 627.290588,536.952393 
	C627.269775,536.165039 626.735229,535.391296 626.229614,534.098083 
	C629.955688,535.115112 633.074280,535.921692 634.988159,531.448181 
	C632.952087,530.906555 631.154846,530.660522 629.576721,529.936768 
	C628.265503,529.335510 627.211914,528.172363 626.005005,526.441223 
M623.676880,542.615479 
	C622.309143,542.402161 620.308777,541.516907 619.690247,542.099304 
	C617.687439,543.984985 615.654114,544.239624 614.191589,542.270752 
	C613.436157,541.253784 614.218994,539.093384 614.308533,537.449707 
	C614.382385,536.092834 614.458679,534.736145 614.533936,533.379333 
	C613.166748,534.008911 611.364624,534.285095 610.512573,535.333374 
	C607.783264,538.691162 608.609741,543.860535 611.942261,546.328125 
	C615.975098,549.314209 619.535645,548.404419 623.676880,542.615479 
z"/>
<path fill="#020202" opacity="1.000000" stroke="none" 
	d="
M265.685547,536.118652 
	C265.635925,519.461060 265.297455,502.797638 265.632965,486.147827 
	C265.877380,474.020081 275.306854,465.551453 287.108246,465.902802 
	C298.463684,466.240845 307.089294,475.259766 307.101532,487.205200 
	C307.158386,542.699097 307.290344,598.193848 307.063721,653.686951 
	C306.921448,688.522339 278.977783,715.870178 244.051926,715.902527 
	C203.557022,715.940002 163.061798,715.960876 122.567520,715.793213 
	C118.515358,715.776428 114.468803,714.405579 110.354965,713.051880 
	C116.094513,710.318359 120.417282,707.162598 119.380188,699.981567 
	C129.409103,697.711121 129.636719,697.546936 129.071777,693.199402 
	C128.589325,693.227295 128.094574,693.210510 127.616333,693.291382 
	C125.469803,693.653992 123.327957,694.044373 121.184433,694.424805 
	C121.303108,692.185974 121.505135,689.947144 121.503265,687.708435 
	C121.502403,686.678833 121.101883,685.649536 120.882584,684.620117 
	C119.897064,684.961487 118.540970,685.005676 117.988449,685.694458 
	C115.189949,689.183472 114.717491,693.011230 116.636276,696.967651 
	C108.607079,693.681824 104.592880,696.131775 103.956894,704.361694 
	C103.887337,705.261780 103.325447,706.123840 102.991928,707.003540 
	C93.062683,693.234192 101.540276,676.017517 119.514160,674.525085 
	C117.778221,677.445190 119.282402,679.503113 120.945892,681.286743 
	C123.974808,684.534424 127.148666,687.652954 130.380630,690.699585 
	C130.939285,691.226135 132.402451,691.563843 132.875992,691.214233 
	C133.463730,690.780396 133.753601,689.495911 133.629211,688.659668 
	C133.479630,687.654114 132.758789,686.733521 132.183899,685.571228 
	C139.262314,686.351929 139.262314,686.351929 140.897125,682.281860 
	C131.883118,681.597107 131.883118,681.597107 132.042282,674.320557 
	C161.843155,674.258423 191.644043,674.195068 221.444916,674.135132 
	C228.772049,674.120422 236.099411,674.148865 243.426300,674.101196 
	C256.927948,674.013367 265.437469,665.528137 265.482880,651.815979 
	C265.567810,626.171021 265.495270,600.525452 265.492676,574.880188 
	C265.492096,568.885315 265.509308,562.890381 266.018402,556.421997 
	C268.299500,555.283203 270.080505,554.617981 271.861511,553.952759 
	C271.731720,553.288330 271.601898,552.623962 271.472107,551.959534 
	C269.567566,551.959534 267.663025,551.959534 265.758484,551.959534 
	C265.658295,550.571777 265.558105,549.183960 265.894653,547.421997 
	C268.859772,547.833618 271.504639,549.529663 273.893158,549.223816 
	C279.595001,548.493774 280.805664,545.028687 279.384705,536.987671 
	C283.236969,538.341614 286.618622,538.493103 289.451080,535.740479 
	C290.360657,534.856567 290.690338,533.376038 291.285278,532.168396 
	C290.065186,532.438477 288.856781,532.834106 287.622284,532.948730 
	C285.821747,533.115845 283.445770,533.784851 282.356415,532.923279 
	C281.376770,532.148499 281.614227,529.593140 281.674194,527.835449 
	C281.710632,526.766968 282.428772,525.721741 282.840698,524.666077 
	C282.414337,524.379944 281.987976,524.093811 281.561615,523.807739 
	C280.430450,524.957764 278.422638,526.047302 278.338257,527.269531 
	C278.116241,530.486206 278.730621,533.760620 278.633972,537.040527 
	C274.232666,534.546753 270.052948,534.091614 265.685547,536.118652 
M282.004211,520.499756 
	C285.945374,524.093384 289.886536,527.687012 293.827728,531.280640 
	C294.382996,531.029602 294.938263,530.778625 295.493530,530.527649 
	C295.261627,528.475159 295.029724,526.422607 294.802582,524.412170 
	C300.833496,525.089111 300.833496,525.089111 302.607269,520.990967 
	C295.902771,522.041565 292.821594,518.614807 292.722443,511.728271 
	C292.185638,511.949799 291.648865,512.171326 291.112091,512.392883 
	C290.556946,515.036804 290.001770,517.680725 289.383087,520.627075 
	C287.601593,519.020508 286.319763,517.354370 284.627930,516.499023 
	C283.256439,515.805542 281.392303,516.086487 279.746643,515.935303 
	C280.328552,517.286865 280.910431,518.638489 282.004211,520.499756 
z"/>
<path fill="#040404" opacity="1.000000" stroke="none" 
	d="
M15.537931,695.805237 
	C16.298456,683.687805 23.019495,675.855469 33.617813,674.311768 
	C42.945351,672.953186 52.560417,678.586487 55.793537,687.625183 
	C58.670650,695.668518 57.294979,703.146240 51.349380,709.343872 
	C45.422695,715.521790 38.000484,717.496643 29.879263,714.749023 
	C21.187630,711.808594 16.401728,705.424927 15.537931,695.805237 
z"/>
<path fill="#040404" opacity="1.000000" stroke="none" 
	d="
M869.086914,674.116577 
	C881.604675,675.103882 889.604553,682.533142 890.410217,693.511108 
	C891.174927,703.931335 884.259033,713.095093 873.932312,715.345032 
	C862.916870,717.745056 851.860535,710.681213 849.316406,699.618225 
	C846.826294,688.789917 853.483093,677.747192 864.250549,674.914001 
	C865.689941,674.535278 867.189514,674.384949 869.086914,674.116577 
z"/>
<path fill="#040404" opacity="1.000000" stroke="none" 
	d="
M436.655334,848.734802 
	C444.168213,840.923767 452.785645,838.836060 461.277252,842.551086 
	C469.112457,845.978882 474.208099,854.005798 473.869049,862.386353 
	C473.515594,871.121399 467.760132,878.727112 459.444489,881.447937 
	C451.107178,884.175964 442.026489,881.407288 436.627869,874.491333 
	C430.717804,866.920044 430.645996,858.248535 436.655334,848.734802 
z"/>
<path fill="#1E1E1E" opacity="1.000000" stroke="none" 
	d="
M191.582672,799.233521 
	C188.867065,806.957947 187.217072,807.852661 179.387802,806.562134 
	C179.622391,808.867126 180.610016,811.535278 179.888123,813.608093 
	C179.261566,815.407166 176.834259,817.444885 174.958572,817.721558 
	C172.669693,818.059204 168.933273,817.404785 167.972153,815.850403 
	C166.540039,813.534302 165.883698,809.578735 166.913651,807.190247 
	C168.232895,804.130798 167.714737,802.251038 166.005997,799.672485 
	C167.697327,799.249084 169.438599,799.175354 171.582809,799.595703 
	C173.280685,801.432129 174.575653,802.774536 175.870621,804.116882 
	C176.226608,803.843506 176.582611,803.570068 176.938599,803.296692 
	C176.614365,801.962891 176.290146,800.629150 175.965912,799.295349 
	C181.018188,799.240662 186.070465,799.185974 191.582672,799.233521 
z"/>
<path fill="#131313" opacity="1.000000" stroke="none" 
	d="
M39.991962,775.006592 
	C41.019249,775.903992 42.160496,776.704041 43.037052,777.730164 
	C43.714798,778.523621 44.061062,779.600220 44.554726,780.550903 
	C43.575527,781.015015 42.604061,781.861145 41.615852,781.881165 
	C35.280811,782.009583 34.807575,782.570984 35.481243,788.458252 
	C35.603539,789.527039 34.339512,790.754517 33.159039,792.937927 
	C31.434767,788.844849 30.186211,785.881042 28.818275,782.511963 
	C34.534580,773.433899 42.731880,767.658875 52.419739,763.561646 
	C52.921387,764.271423 52.963272,764.568054 53.005154,764.864746 
	C54.722740,768.016296 55.453880,771.058899 52.403156,773.941223 
	C48.779945,777.364075 44.868107,777.089844 40.323860,774.890015 
	C39.803955,774.659851 39.713207,774.611267 39.622456,774.562744 
	C39.745613,774.710754 39.868778,774.858704 39.991962,775.006592 
z"/>
<path fill="#0F0F0F" opacity="1.000000" stroke="none" 
	d="
M366.390137,803.031921 
	C363.234406,797.808044 360.290253,792.501282 357.620575,787.059814 
	C356.929199,785.650513 357.097839,783.819275 356.871460,782.181885 
	C358.902435,781.961121 361.192902,781.029663 362.913818,781.658081 
	C367.379852,783.288757 371.595276,785.605713 376.229797,787.958984 
	C373.267212,793.145691 369.985565,798.022278 366.390137,803.031921 
z"/>
<path fill="#0F0F0F" opacity="1.000000" stroke="none" 
	d="
M417.593994,52.434502 
	C416.018982,42.843872 418.602478,41.768234 423.632202,41.066093 
	C425.173950,40.850864 426.815826,41.352566 427.601624,41.437943 
	C428.541046,37.932045 429.219666,34.701561 430.364136,31.645550 
	C430.632233,30.929607 432.477386,30.804245 433.596954,30.407166 
	C433.662445,31.496956 433.858246,32.598339 433.762573,33.673790 
	C433.623535,35.237022 432.756226,37.983780 433.101562,38.132607 
	C434.903778,38.909283 436.985657,39.225685 438.982117,39.282005 
	C439.956329,39.309490 440.956390,38.422779 442.063232,37.893169 
	C442.759613,44.080585 438.552917,45.997593 430.451904,43.257072 
	C431.005676,45.400227 431.504181,47.329479 432.005249,49.644291 
	C427.347290,50.836628 422.686768,51.643406 417.593994,52.434502 
z"/>
<path fill="#0E0E0E" opacity="1.000000" stroke="none" 
	d="
M823.214478,486.018799 
	C827.561462,489.546875 832.335632,492.758911 835.499634,497.135010 
	C837.551392,499.972992 834.914551,503.394775 831.665649,505.117950 
	C827.947876,507.089844 822.625427,505.875397 821.420105,502.280579 
	C820.566895,499.736145 821.164490,496.718079 821.018127,493.916443 
	C820.971619,493.026855 820.615051,492.153473 820.121338,491.096924 
	C820.881165,489.346252 821.919922,487.771362 823.214478,486.018799 
z"/>
<path fill="#0C0C0C" opacity="1.000000" stroke="none" 
	d="
M118.978737,699.987244 
	C120.417282,707.162598 116.094513,710.318359 110.124893,712.763916 
	C107.674751,711.283020 105.389999,709.478577 103.048584,707.338867 
	C103.325447,706.123840 103.887337,705.261780 103.956894,704.361694 
	C104.592880,696.131775 108.607079,693.681824 116.755722,697.248413 
	C117.822884,698.376587 118.400810,699.181885 118.978737,699.987244 
z"/>
<path fill="#0F0F0F" opacity="1.000000" stroke="none" 
	d="
M388.080811,435.602448 
	C382.257599,443.969574 382.257599,443.969574 375.393494,442.045013 
	C375.000000,442.000000 375.004608,442.000000 375.004608,442.000000 
	C369.810944,436.609924 372.670929,431.702332 375.953094,426.467438 
	C382.272125,426.178925 385.063385,430.848724 388.080811,435.602448 
z"/>
<path fill="#1E1E1E" opacity="1.000000" stroke="none" 
	d="
M131.589325,674.210815 
	C131.883118,681.597107 131.883118,681.597107 140.897125,682.281860 
	C139.262314,686.351929 139.262314,686.351929 132.183899,685.571228 
	C132.758789,686.733521 133.479630,687.654114 133.629211,688.659668 
	C133.753601,689.495911 133.463730,690.780396 132.875992,691.214233 
	C132.402451,691.563843 130.939285,691.226135 130.380630,690.699585 
	C127.148666,687.652954 123.974808,684.534424 120.945892,681.286743 
	C119.282402,679.503113 117.778221,677.445190 119.907089,674.601379 
	C123.684570,674.230591 127.410477,674.165833 131.589325,674.210815 
z"/>
<path fill="#1A1A1A" opacity="1.000000" stroke="none" 
	d="
M213.419647,257.404968 
	C211.533661,255.155396 209.927185,253.126328 208.543976,250.955048 
	C207.764709,249.731842 207.353455,248.274185 206.776413,246.922150 
	C208.323135,247.251755 209.880157,247.541428 211.410248,247.935608 
	C211.860901,248.051727 212.235382,248.463501 212.942261,248.940521 
	C216.278610,246.431778 219.634521,242.511795 224.738861,247.191025 
	C225.386658,247.725296 225.628922,247.901169 225.928970,247.997452 
	C225.977661,250.835678 226.026337,253.673889 226.077271,256.860046 
	C221.983887,257.327301 217.888214,257.446655 213.419647,257.404968 
z"/>
<path fill="#0F0F0F" opacity="1.000000" stroke="none" 
	d="
M796.371704,713.082886 
	C795.159058,711.713684 794.492615,710.127136 793.391846,708.944824 
	C790.452698,705.787720 787.207275,702.909790 784.359802,699.677490 
	C783.650574,698.872437 783.987000,697.146240 783.842712,695.843506 
	C784.957825,696.125732 786.245483,696.147156 787.151062,696.746216 
	C788.872375,697.884766 790.375183,699.353760 792.184082,700.865417 
	C793.041870,697.901184 793.716003,695.571594 794.390137,693.242004 
	C794.917786,693.247070 795.445435,693.252197 795.973083,693.257263 
	C796.509033,695.619629 797.044922,697.981995 797.625122,700.539246 
	C799.932068,701.046387 802.329407,701.573364 805.171875,702.172913 
	C802.651367,705.846924 799.685669,709.448364 796.371704,713.082886 
z"/>
<path fill="#323232" opacity="1.000000" stroke="none" 
	d="
M278.987793,536.988281 
	C280.805664,545.028687 279.595001,548.493774 273.893158,549.223816 
	C271.504639,549.529663 268.859772,547.833618 265.995026,547.089844 
	C265.554169,543.702026 265.449707,540.272034 265.515381,536.480347 
	C270.052948,534.091614 274.232666,534.546753 278.628052,537.034546 
	C279.000000,537.000000 278.987793,536.988281 278.987793,536.988281 
z"/>
<path fill="#0F0F0F" opacity="1.000000" stroke="none" 
	d="
M528.214111,786.326050 
	C529.858887,784.745911 531.717285,783.680786 533.191467,782.226135 
	C535.798645,779.653320 538.680542,778.844910 541.529480,781.209595 
	C544.906982,784.012878 541.395447,785.662354 539.978516,787.612671 
	C539.631958,788.089722 539.486633,788.712891 540.019958,790.175720 
	C541.693604,789.012939 543.367249,787.850098 545.721741,786.214294 
	C546.071167,787.531372 547.125610,789.636963 546.657104,790.061401 
	C544.556274,791.964478 542.170288,793.731140 539.585754,794.852112 
	C538.150696,795.474487 536.123108,794.731140 534.139526,794.882324 
	C532.029114,792.329407 530.141907,789.497498 528.214111,786.326050 
z"/>
<path fill="#0F0F0F" opacity="1.000000" stroke="none" 
	d="
M811.543945,500.825867 
	C816.711975,503.314178 821.579956,505.957916 827.569397,509.210785 
	C825.709106,510.141510 824.308105,511.488800 823.128906,511.316589 
	C818.827393,510.688446 816.137756,512.847168 816.408813,516.959900 
	C816.487854,518.159363 815.691650,519.416504 815.296753,520.647217 
	C814.488708,519.775024 813.506104,519.008301 812.903992,518.011719 
	C810.728455,514.410583 808.680908,510.732086 806.229980,507.015503 
	C807.664490,504.959259 809.454102,502.970306 811.543945,500.825867 
z"/>
<path fill="#0F0F0F" opacity="1.000000" stroke="none" 
	d="
M377.272491,787.154602 
	C370.942841,783.962769 369.284363,779.371521 372.347443,772.846924 
	C372.991913,771.474121 371.490936,769.094177 370.655762,765.971252 
	C372.105225,766.224182 373.888977,766.134155 375.239960,766.855042 
	C378.023560,768.340515 380.576050,770.258972 383.606506,771.999268 
	C381.834167,776.990967 379.678986,781.982727 377.272491,787.154602 
z"/>
<path fill="#0F0F0F" opacity="1.000000" stroke="none" 
	d="
M882.728882,456.586182 
	C880.210815,457.168915 877.871948,457.471985 875.533020,457.775024 
	C876.624939,455.812683 877.734009,453.859406 878.786194,451.875977 
	C878.909729,451.643188 878.720764,451.244629 878.596924,450.340515 
	C875.485901,450.551910 872.278931,451.179504 869.194336,450.803223 
	C867.695984,450.620544 865.065735,448.121368 865.289978,447.424591 
	C866.247314,444.449768 867.890991,441.623108 869.717590,439.049927 
	C870.195435,438.376801 872.232239,438.810242 874.382568,438.688507 
	C872.046570,441.674561 870.489380,443.665131 868.015320,446.827637 
	C874.332642,446.710052 879.865662,442.440247 884.528931,447.945740 
	C884.226929,450.763428 883.567444,453.534973 882.728882,456.586182 
z"/>
<path fill="#0F0F0F" opacity="1.000000" stroke="none" 
	d="
M752.337402,584.079956 
	C748.301208,579.854492 744.486206,575.772461 740.953613,571.459167 
	C739.949280,570.232849 739.766968,568.333374 739.207642,566.742676 
	C739.785889,566.458557 740.364136,566.174377 740.942383,565.890259 
	C743.562134,568.232544 746.181885,570.574768 749.003784,573.097778 
	C749.515381,569.796509 749.949768,566.993469 750.384155,564.190430 
	C750.955994,564.244873 751.527771,564.299377 752.099609,564.353882 
	C752.475769,566.648254 752.851990,568.942688 753.258728,571.423218 
	C756.019531,572.083679 758.718262,572.729248 761.664307,573.434021 
	C760.417908,578.685486 756.617920,576.280151 753.660339,576.144165 
	C754.167908,578.450378 754.614929,580.481445 755.057373,582.849609 
	C754.257141,583.502991 753.461487,583.819336 752.337402,584.079956 
z"/>
<path fill="#131313" opacity="1.000000" stroke="none" 
	d="
M266.425110,216.726395 
	C257.995697,216.880402 256.111389,215.870850 256.159515,210.435333 
	C256.181091,207.998474 257.211212,204.927658 258.898651,203.301422 
	C261.335754,200.952637 264.627319,201.526718 267.663940,203.940002 
	C267.564453,208.134338 267.097351,212.265167 266.425110,216.726395 
z"/>
<path fill="#414141" opacity="1.000000" stroke="none" 
	d="
M390.524170,604.794067 
	C389.142517,605.636902 387.888824,606.012817 386.763519,606.624695 
	C385.193268,607.478638 383.718903,608.508911 381.572723,608.489990 
	C383.253052,606.397034 384.933380,604.304077 386.613708,602.211121 
	C386.302063,601.772095 385.990417,601.333008 385.678772,600.893982 
	C383.503906,601.190918 381.334839,601.543213 379.152832,601.771362 
	C376.206299,602.079346 373.246796,602.004883 372.506927,598.332214 
	C371.766998,594.659607 373.543365,592.402344 377.691223,591.250977 
	C376.986053,593.942810 376.392975,596.206726 376.012878,597.657593 
	C380.983246,598.174133 385.271545,598.619812 389.964050,599.011719 
	C390.481964,600.782776 390.595703,602.607666 390.524170,604.794067 
z"/>
<path fill="#181818" opacity="1.000000" stroke="none" 
	d="
M19.256329,440.362122 
	C24.506353,441.915619 29.711836,443.862244 36.294952,446.324066 
	C33.892818,448.004120 32.752274,449.472382 31.524929,449.548950 
	C24.745033,449.971832 24.557961,450.050781 24.880493,456.657013 
	C24.894976,456.953552 24.646713,457.262909 24.244270,457.788574 
	C22.382402,452.259003 20.797092,446.507172 19.256329,440.362122 
z"/>
<path fill="#131313" opacity="1.000000" stroke="none" 
	d="
M53.053940,419.003876 
	C51.152435,416.617981 49.139313,414.309784 47.399647,411.811249 
	C46.609119,410.675873 46.360096,409.163452 45.865440,407.822083 
	C47.281731,408.086365 48.708862,408.305481 50.107948,408.641418 
	C50.547031,408.746857 50.910713,409.166321 51.307995,409.441406 
	C52.964550,408.630859 54.565323,407.847565 56.549400,407.016418 
	C57.318619,411.348785 57.704533,415.729034 58.010578,420.557739 
	C57.197086,420.994476 56.463467,420.982819 55.244217,420.701447 
	C54.190369,419.955811 53.622150,419.479828 53.053940,419.003876 
z"/>
<path fill="#181818" opacity="1.000000" stroke="none" 
	d="
M566.356812,769.439697 
	C564.741516,769.031494 562.907471,768.446838 561.318359,767.465515 
	C559.166626,766.136780 557.202820,764.503723 554.151794,762.261414 
	C553.979797,761.030579 553.620667,758.461060 553.286438,756.069824 
	C555.788391,756.069824 557.578857,756.069824 559.668091,756.038696 
	C562.060364,760.367310 564.153748,764.726929 566.356812,769.439697 
z"/>
<path fill="#131313" opacity="1.000000" stroke="none" 
	d="
M885.496948,445.801331 
	C882.781372,444.638855 879.810059,443.639282 877.955078,441.616241 
	C876.410583,439.931732 876.176697,437.045532 875.362305,434.691589 
	C876.904846,434.414307 878.438599,434.012939 879.992981,433.901764 
	C881.098206,433.822754 882.231262,434.134796 882.642822,435.128754 
	C883.806824,436.416168 884.970886,437.703552 886.507812,438.990143 
	C886.495300,441.166595 886.109985,443.343872 885.496948,445.801331 
z"/>
<path fill="#181818" opacity="1.000000" stroke="none" 
	d="
M737.293579,587.638062 
	C735.955322,583.352783 734.729858,579.035706 739.486633,576.120605 
	C740.243347,575.656799 741.321228,575.717041 743.455994,575.298889 
	C740.861145,579.323975 738.268127,582.388794 742.006714,586.150146 
	C740.627625,586.912354 739.127258,587.300049 737.293579,587.638062 
z"/>
<path fill="#2D2D2D" opacity="1.000000" stroke="none" 
	d="
M728.989746,256.990295 
	C729.013184,257.664337 729.036621,258.338348 729.062500,259.351196 
	C724.960205,259.181305 720.855591,258.672577 716.386108,258.017639 
	C720.582581,253.089569 721.335205,253.035614 728.639526,256.996246 
	C729.000000,257.000000 728.989685,256.990295 728.989746,256.990295 
z"/>
<path fill="#181818" opacity="1.000000" stroke="none" 
	d="
M654.877197,673.230530 
	C655.230469,675.265625 655.416565,677.108521 655.389709,678.948303 
	C655.377319,679.791748 654.946289,680.629028 654.705139,681.469116 
	C653.896301,681.128784 652.641602,681.005310 652.352966,680.411926 
	C650.786316,677.190735 649.458191,673.853516 648.074463,670.165161 
	C650.275024,670.861694 652.449036,671.949341 654.877197,673.230530 
z"/>
<path fill="#181818" opacity="1.000000" stroke="none" 
	d="
M561.981873,72.010674 
	C561.707458,73.084747 561.788818,74.608131 561.097412,75.155609 
	C558.004272,77.604927 559.518921,79.930603 560.949463,82.713577 
	C558.614807,81.650757 556.261536,80.225258 553.730835,78.500175 
	C554.411438,77.202904 555.136169,76.031288 556.158386,75.247803 
	C557.741028,74.034752 559.526733,73.086678 561.613159,72.013054 
	C562.000000,71.999855 561.981873,72.010674 561.981873,72.010674 
z"/>
<path fill="#1E1E1E" opacity="1.000000" stroke="none" 
	d="
M53.431358,764.901123 
	C52.963272,764.568054 52.921387,764.271423 52.804794,763.531616 
	C56.246380,761.787903 59.762676,760.487366 63.658657,759.230164 
	C63.041668,765.469849 58.337944,765.002930 53.431358,764.901123 
z"/>
<path fill="#1E1E1E" opacity="1.000000" stroke="none" 
	d="
M384.586609,770.858337 
	C380.547699,766.366028 381.091309,764.142090 387.362000,760.003296 
	C386.751709,763.514587 385.801117,767.070679 384.586609,770.858337 
z"/>
<path fill="#181818" opacity="1.000000" stroke="none" 
	d="
M408.541290,54.282234 
	C407.944794,52.648968 407.744476,51.001057 407.544128,49.353142 
	C409.942963,50.522282 414.079620,47.012836 415.014038,52.484901 
	C412.989197,53.317490 410.963318,53.792542 408.541290,54.282234 
z"/>
<path fill="#131313" opacity="1.000000" stroke="none" 
	d="
M268.661621,201.820862 
	C264.445190,198.080688 266.894409,195.022507 270.350342,192.020203 
	C270.071228,195.152649 269.458405,198.332123 268.661621,201.820862 
z"/>
<path fill="#181818" opacity="1.000000" stroke="none" 
	d="
M562.274902,84.220894 
	C564.430481,82.580322 566.713196,81.226532 568.995850,79.872742 
	C569.333557,80.211060 569.671265,80.549377 570.008972,80.887695 
	C568.789856,82.695724 567.570679,84.503761 566.198669,86.606987 
	C564.831177,86.104019 563.616638,85.305847 562.274902,84.220894 
z"/>
<path fill="#323232" opacity="1.000000" stroke="none" 
	d="
M265.584381,552.211792 
	C267.663025,551.959534 269.567566,551.959534 271.472107,551.959534 
	C271.601898,552.623962 271.731720,553.288330 271.861511,553.952759 
	C270.080505,554.617981 268.299500,555.283203 266.127594,555.995728 
	C265.627899,554.850037 265.519073,553.657043 265.584381,552.211792 
z"/>
<path fill="#020202" opacity="1.000000" stroke="none" 
	d="
M175.631943,799.207092 
	C176.290146,800.629150 176.614365,801.962891 176.938599,803.296692 
	C176.582611,803.570068 176.226608,803.843506 175.870621,804.116882 
	C174.575653,802.774536 173.280685,801.432129 171.934906,799.697510 
	C173.022049,799.243103 174.160019,799.180969 175.631943,799.207092 
z"/>
<path fill="#181818" opacity="1.000000" stroke="none" 
	d="
M728.371460,588.962036 
	C729.106628,585.332825 731.128662,585.011658 733.925293,587.591187 
	C732.244263,588.313904 730.500366,588.679871 728.371460,588.962036 
z"/>
<path fill="#2D2D2D" opacity="1.000000" stroke="none" 
	d="
M473.835571,694.155640 
	C472.106567,694.912476 470.493042,695.441101 468.879517,695.969666 
	C468.673676,695.548523 468.467834,695.127380 468.261993,694.706238 
	C469.845703,693.788513 471.429413,692.870728 473.360260,691.945068 
	C473.788605,692.600586 473.869812,693.264038 473.835571,694.155640 
z"/>
<path fill="#1A1A1A" opacity="1.000000" stroke="none" 
	d="
M207.123199,257.338379 
	C207.554504,257.010284 208.162506,256.837799 208.914169,256.920776 
	C208.471863,257.282135 207.885895,257.388062 207.123199,257.338379 
z"/>
<path fill="#0D0D0D" opacity="1.000000" stroke="none" 
	d="
M854.002441,468.998688 
	C854.257324,465.481262 853.039551,461.768585 856.525146,458.839783 
	C859.363403,456.454773 862.018127,456.287994 864.510803,458.600220 
	C867.389221,461.270264 864.436523,462.876678 862.872742,464.646759 
	C862.245544,465.356659 861.709717,466.147217 861.733459,467.930847 
	C863.818481,466.953583 865.903503,465.976349 868.091309,464.950928 
	C868.607483,469.860229 866.982727,470.981079 858.389099,472.394531 
	C857.135498,475.701477 856.409485,478.858521 854.822510,481.497955 
	C852.701843,485.025238 849.744446,486.230377 846.194458,481.918213 
	C845.590088,481.287476 845.337830,481.106140 845.026123,481.007446 
	C842.823853,478.579468 840.381042,476.319122 838.522156,473.651794 
	C837.610291,472.343445 837.782288,470.279785 838.153137,468.153503 
	C841.464172,471.286163 843.919556,471.245911 847.129089,468.725342 
	C848.355469,467.762299 851.143921,468.788452 853.664062,469.094299 
	C854.194580,469.329468 854.281494,469.378448 854.368469,469.427399 
	C854.246460,469.284485 854.124451,469.141571 854.002441,468.998688 
z"/>
<path fill="#0C0C0C" opacity="1.000000" stroke="none" 
	d="
M38.351410,429.643616 
	C39.003883,430.421387 39.481163,430.886902 39.904442,431.397217 
	C41.895237,433.797150 46.724308,435.074646 43.833900,439.534424 
	C40.399586,444.833374 37.422394,445.452667 32.288216,442.659271 
	C29.009844,440.875580 27.994520,436.604706 29.347914,432.320496 
	C29.890888,430.601715 29.362701,428.564392 29.471437,426.680725 
	C29.531187,425.645660 29.901516,424.628571 30.131811,423.603363 
	C31.002708,423.823364 32.078403,423.794067 32.706211,424.309937 
	C34.614178,425.877502 36.349072,427.655731 38.351410,429.643616 
z"/>
<path fill="#0C0C0C" opacity="1.000000" stroke="none" 
	d="
M52.669563,418.963837 
	C53.622150,419.479828 54.190369,419.955811 54.877594,420.687622 
	C54.713409,424.444794 55.978283,428.144958 52.532444,431.097504 
	C49.225433,433.931030 46.160221,433.449219 43.042889,431.360413 
	C39.154949,428.755249 39.334454,425.093506 40.894573,421.221069 
	C42.341293,417.630035 44.923328,416.745880 48.460602,417.922363 
	C49.708462,418.337402 51.008816,418.594543 52.669563,418.963837 
z"/>
<path fill="#0C0C0C" opacity="1.000000" stroke="none" 
	d="
M844.636841,481.000885 
	C845.337830,481.106140 845.590088,481.287476 845.887573,481.762878 
	C845.909363,485.908112 847.732056,490.122711 843.359253,493.265503 
	C840.339783,495.435669 837.759888,495.815643 834.894165,493.388092 
	C830.472961,489.642944 829.798401,486.904999 832.709717,482.742035 
	C834.837891,479.699036 837.522583,477.618317 841.514160,479.978790 
	C842.337524,480.465698 843.331909,480.663330 844.636841,481.000885 
z"/>
<path fill="#0F0F0F" opacity="1.000000" stroke="none" 
	d="
M845.236511,310.822266 
	C843.556458,307.763428 841.950256,305.070435 840.733704,302.211609 
	C840.312805,301.222504 840.417480,299.395660 841.073914,298.713104 
	C841.951843,297.800446 843.942444,296.859650 844.861206,297.267883 
	C849.820312,299.471313 854.626343,302.032410 859.387695,304.647583 
	C859.871582,304.913330 859.705444,306.362457 859.846069,307.296753 
	C852.472107,307.556671 852.472107,307.556671 849.664429,318.332916 
	C847.875549,315.262817 846.669434,313.192902 845.236511,310.822266 
z"/>
<path fill="#0E0E0E" opacity="1.000000" stroke="none" 
	d="
M439.656281,32.391441 
	C436.452362,29.015409 433.442078,25.941271 430.036194,22.463142 
	C435.759033,19.205568 436.763977,25.314566 440.030182,25.562750 
	C441.028778,23.374033 442.029297,21.181036 443.570374,17.803291 
	C446.143127,25.872105 446.143127,25.872105 454.383118,27.646353 
	C453.005768,30.458216 453.005768,30.458216 447.064026,31.433392 
	C446.887024,33.233227 446.721405,34.917461 446.555756,36.601696 
	C444.320496,35.298908 442.085205,33.996117 439.656281,32.391441 
z"/>
<path fill="#0E0E0E" opacity="1.000000" stroke="none" 
	d="
M561.994629,72.009003 
	C561.256775,70.773903 560.377197,69.590240 559.832581,68.268524 
	C559.276917,66.919960 559.050354,65.435760 558.679810,64.010925 
	C560.256836,64.364136 562.024536,64.385956 563.362000,65.155556 
	C564.985229,66.089638 566.245422,67.654808 568.556274,69.761650 
	C568.292908,67.208389 567.876221,65.824974 568.101196,64.555229 
	C568.300354,63.431469 569.213501,62.434208 569.811340,61.381077 
	C570.533936,62.310181 571.548889,63.141212 571.902039,64.194237 
	C572.306580,65.400230 572.123474,66.803329 572.229675,68.741989 
	C574.236267,68.843285 576.191101,68.753418 578.058044,69.116005 
	C578.987061,69.296448 579.754944,70.306335 580.595764,70.941017 
	C579.795654,71.613373 579.076233,72.689987 578.177734,72.869118 
	C576.586731,73.186356 574.886902,72.958069 573.611450,72.958069 
	C573.213806,75.047066 572.873352,76.835747 572.532959,78.624420 
	C570.893555,77.787659 569.155090,77.097626 567.640625,76.075737 
	C565.883850,74.890343 564.323669,73.413528 562.330017,72.036942 
	C561.981873,72.010674 562.000000,71.999855 561.994629,72.009003 
z"/>
<path fill="#0E0E0E" opacity="1.000000" stroke="none" 
	d="
M744.587158,246.309570 
	C744.607178,248.005951 744.353882,249.498474 744.100647,250.991013 
	C743.436462,251.157944 742.772339,251.324875 742.108215,251.491806 
	C738.182678,247.265488 734.168335,243.115601 730.409180,238.746216 
	C729.686707,237.906418 729.966125,236.204742 729.783325,234.900726 
	C731.205444,235.122635 732.995178,234.885315 733.970276,235.665771 
	C735.780762,237.114929 737.115845,239.158112 738.416687,240.682037 
	C739.362671,237.987778 740.170349,235.687271 740.978027,233.386765 
	C741.954041,235.256714 742.930115,237.126648 744.317688,239.785095 
	C745.186523,239.831619 747.000793,239.704590 748.692383,240.101074 
	C749.755127,240.350159 750.633728,241.384796 751.594971,242.067017 
	C750.590271,242.708191 749.659241,243.617264 748.561218,243.919403 
	C747.321655,244.260468 745.918396,243.970642 744.621887,244.177887 
	C744.421570,244.209885 744.411743,245.433273 744.587158,246.309570 
z"/>
<path fill="#0E0E0E" opacity="1.000000" stroke="none" 
	d="
M236.195953,226.629990 
	C234.023193,220.310516 235.462708,217.632156 243.069275,215.867737 
	C241.715729,218.257202 240.362198,220.646667 238.279358,224.323639 
	C241.510315,223.426407 243.477463,222.418747 245.418854,222.466156 
	C247.507919,222.517166 250.309570,222.954651 251.440369,224.336411 
	C252.563873,225.709244 252.797211,228.866577 251.971817,230.516388 
	C250.891144,232.676498 248.459351,234.219543 246.407578,235.760117 
	C246.152283,235.951782 244.668732,234.507584 243.658966,233.749847 
	C245.909180,231.755341 247.606857,230.250595 250.070816,228.066635 
	C244.651611,227.606400 240.558273,227.258759 236.195953,226.629990 
z"/>
<path fill="#0E0E0E" opacity="1.000000" stroke="none" 
	d="
M226.333939,248.042435 
	C225.628922,247.901169 225.386658,247.725296 225.102203,247.265930 
	C224.702820,245.612411 224.270035,244.175430 224.131409,242.710632 
	C223.830917,239.535233 223.505646,236.486252 227.525330,234.910446 
	C231.349136,233.411453 233.881012,234.252457 236.406586,239.130569 
	C234.342667,240.291946 231.913773,241.658691 229.484863,243.025436 
	C230.049454,243.765518 230.614029,244.505600 231.178619,245.245697 
	C233.463608,243.988251 235.748596,242.730804 238.033600,241.473373 
	C238.409378,241.620224 238.785141,241.767059 239.160919,241.913910 
	C238.369492,243.513123 237.817795,245.300293 236.739960,246.674927 
	C233.940842,250.244766 230.303055,249.198151 226.333939,248.042435 
z"/>
<path fill="#0E0E0E" opacity="1.000000" stroke="none" 
	d="
M245.684845,214.476059 
	C246.060730,212.803223 246.815872,210.306290 247.049850,210.354187 
	C249.280258,210.810959 253.350388,211.903015 253.294418,212.431717 
	C252.669373,218.336212 256.810791,218.666672 260.699219,219.514786 
	C261.082672,219.598434 261.350372,220.212799 262.398346,221.412704 
	C260.596069,222.364044 259.131409,223.502518 257.486877,223.903717 
	C255.802704,224.314590 246.538498,216.796799 245.684845,214.476059 
z"/>
<path fill="#2D2D2D" opacity="1.000000" stroke="none" 
	d="
M729.005066,257.005157 
	C726.174866,252.248016 724.266479,247.559845 731.095764,242.810410 
	C730.915405,244.634766 730.652222,245.728714 730.734680,246.795914 
	C730.896606,248.889984 730.703552,251.344193 731.763672,252.891312 
	C732.269592,253.629654 735.309021,252.648407 737.197327,252.416519 
	C738.182495,252.295563 739.159912,252.110535 740.140808,251.954437 
	C739.917786,252.935303 739.932739,254.063858 739.431335,254.872009 
	C736.973694,258.833130 733.387512,258.017059 729.389282,256.966370 
	C728.989685,256.990295 729.000000,257.000000 729.005066,257.005157 
z"/>
<path fill="#FAFAFA" opacity="1.000000" stroke="none" 
	d="
M847.940125,826.993103 
	C845.299805,832.197266 842.060974,836.827271 835.725098,839.331360 
	C833.737610,840.047119 832.369690,840.512268 831.001831,840.977417 
	C830.552734,840.945923 830.103577,840.914429 828.940796,840.886353 
	C824.483765,839.936279 820.740356,838.982849 816.996948,838.029419 
	C810.141541,832.704346 806.103149,826.006409 807.370605,817.040710 
	C808.630066,808.132202 815.275635,801.346802 824.097534,799.538452 
	C832.946106,797.724731 840.952576,801.640564 846.825073,811.150391 
	C847.375488,816.849609 847.657837,821.921387 847.940125,826.993103 
z"/>
<path fill="#0D0D0D" opacity="1.000000" stroke="none" 
	d="
M872.482300,799.347046 
	C874.494690,798.695923 876.272705,797.800842 878.318604,796.770874 
	C878.178955,803.875854 873.276428,805.852356 865.066589,802.174316 
	C867.675110,806.986755 867.946472,811.194275 864.001709,814.954956 
	C861.847473,817.008728 860.026306,817.636841 857.673706,815.229980 
	C854.775024,812.264465 851.492065,809.662598 848.716064,806.595093 
	C847.620300,805.384216 847.443176,803.342102 846.847717,801.678467 
	C847.256592,801.406433 847.665466,801.134460 848.074341,800.862427 
	C849.686401,801.801880 851.298401,802.741394 852.147339,803.236145 
	C855.997864,801.915894 859.312378,800.779480 863.943787,799.191528 
	C864.749451,797.118225 862.620850,791.324036 868.371704,790.255554 
	C870.729492,789.817505 873.410645,791.119873 876.274048,791.696899 
	C874.507080,794.947266 873.377441,797.025208 872.482300,799.347046 
z"/>
<path fill="#0C0C0C" opacity="1.000000" stroke="none" 
	d="
M545.295715,613.794434 
	C547.834473,615.824463 548.516846,617.789062 546.798096,620.464417 
	C544.865784,623.472168 542.620239,625.658264 538.733215,624.950317 
	C535.082581,624.285278 532.672729,622.095093 532.154236,618.439270 
	C531.914124,616.745911 532.637207,614.914124 532.934448,613.146912 
	C533.144653,611.897339 533.547913,610.650940 533.549072,609.402771 
	C533.550537,607.812195 533.233398,606.221313 533.053589,604.630554 
	C534.736145,605.244446 536.728027,605.480896 538.035278,606.552612 
	C540.573425,608.633362 542.726990,611.183350 545.295715,613.794434 
z"/>
<path fill="#0D0D0D" opacity="1.000000" stroke="none" 
	d="
M522.098877,631.907410 
	C520.774597,629.197510 519.216064,626.955505 518.451233,624.469360 
	C518.066467,623.218567 518.738403,621.173767 519.665466,620.155334 
	C520.270508,619.490662 522.380554,619.601257 523.492493,620.094666 
	C528.613953,622.367065 533.621582,624.895874 538.998047,628.809570 
	C537.504456,629.309814 535.995789,630.271912 534.520020,630.223877 
	C530.067749,630.078857 527.858337,632.376953 528.347778,636.785583 
	C528.483704,638.009888 527.768188,639.328857 527.443298,640.604370 
	C526.555725,639.627502 525.487976,638.758667 524.822449,637.648682 
	C523.800537,635.944336 523.055176,634.074219 522.098877,631.907410 
z"/>
<path fill="#0E0E0E" opacity="1.000000" stroke="none" 
	d="
M535.912109,441.088562 
	C532.179565,438.801605 532.169189,435.620758 533.967407,432.806335 
	C535.542053,430.341736 537.764587,427.596558 541.877014,429.860840 
	C540.040344,431.863922 538.392456,433.661194 536.744507,435.458466 
	C537.015991,436.000458 537.287415,436.542450 537.558899,437.084442 
	C539.539124,436.498169 541.508484,435.492584 543.502625,435.440704 
	C545.596924,435.386169 548.857910,435.603394 549.559448,436.852783 
	C550.660828,438.814148 550.937744,442.223633 549.910522,444.128052 
	C548.803528,446.180359 545.811157,447.235199 543.571594,448.611938 
	C543.426086,448.701416 542.684753,447.821625 542.014587,447.202362 
	C543.856506,445.167725 545.577759,443.266388 548.281006,440.280273 
	C543.159180,440.671600 539.724060,440.934082 535.912109,441.088562 
z"/>
<path fill="#0E0E0E" opacity="1.000000" stroke="none" 
	d="
M550.727295,762.052185 
	C549.294800,764.197876 547.749878,766.004395 546.204956,767.810913 
	C546.330322,768.196777 546.455688,768.582642 546.581055,768.968506 
	C549.015869,768.605469 551.499451,767.769348 553.871521,768.014282 
	C556.179749,768.252563 559.297363,768.967590 560.410522,770.598694 
	C562.278931,773.336426 560.631714,776.162659 558.164124,778.432861 
	C556.027161,780.399109 554.174194,782.176392 551.334045,779.154541 
	C553.331787,777.351929 555.348999,775.531738 557.366211,773.711548 
	C557.074707,773.141602 556.783142,772.571655 556.491638,772.001770 
	C554.768677,772.375366 553.057312,772.979065 551.320007,773.066040 
	C549.010803,773.181458 545.601013,773.771118 544.623474,772.566711 
	C543.281982,770.913940 542.842957,767.347839 543.732910,765.375916 
	C544.750610,763.120972 546.623169,759.654480 550.727295,762.052185 
z"/>
<path fill="#0E0E0E" opacity="1.000000" stroke="none" 
	d="
M527.800903,447.443817 
	C530.054565,448.397125 531.965637,449.222961 534.504028,450.319824 
	C532.202454,453.065918 530.379761,455.240570 528.557129,457.415222 
	C528.726807,457.686218 528.896545,457.957184 529.066223,458.228180 
	C530.317871,457.704987 531.596191,457.236542 532.813171,456.642334 
	C533.892517,456.115326 534.903625,455.448578 537.133728,454.152832 
	C536.241455,459.435944 533.641968,461.747406 530.282349,462.833496 
	C527.597168,463.701599 521.992188,458.894135 521.320557,455.371002 
	C520.410278,450.596222 523.602539,448.628510 527.800903,447.443817 
z"/>
<path fill="#131313" opacity="1.000000" stroke="none" 
	d="
M848.339233,826.996094 
	C847.657837,821.921387 847.375488,816.849609 847.066162,811.386902 
	C851.348389,811.121094 854.085205,813.566589 855.557251,817.317749 
	C857.507568,822.287659 854.664001,826.158508 848.339233,826.996094 
z"/>
<path fill="#131313" opacity="1.000000" stroke="none" 
	d="
M817.031006,838.394531 
	C820.740356,838.982849 824.483765,839.936279 828.618286,840.996338 
	C827.955139,842.992676 826.900818,844.882385 825.907715,846.662354 
	C825.742798,848.588440 825.569946,850.607483 825.397095,852.626526 
	C824.040527,850.982483 822.432251,849.483093 821.385254,847.661133 
	C819.745789,844.808533 818.485779,841.737854 817.031006,838.394531 
z"/>
<path fill="#131313" opacity="1.000000" stroke="none" 
	d="
M831.037903,841.343018 
	C832.369690,840.512268 833.737610,840.047119 835.465210,839.523438 
	C835.332947,840.877563 834.840942,842.290222 834.348999,843.702881 
	C833.257324,843.038147 832.165649,842.373352 831.037903,841.343018 
z"/>
<path fill="#FAFAFA" opacity="1.000000" stroke="none" 
	d="
M97.208862,827.990723 
	C92.138557,837.637085 83.804672,842.194946 74.714142,840.574951 
	C65.568680,838.945190 58.842365,832.134338 57.339752,822.982056 
	C55.942841,814.473572 60.630421,805.480347 68.571823,801.432739 
	C76.076965,797.607544 85.111382,798.485046 91.427711,804.132507 
	C98.592613,810.538452 100.637260,818.470520 97.208862,827.990723 
z"/>
<path fill="#0D0D0D" opacity="1.000000" stroke="none" 
	d="
M374.999725,441.997711 
	C375.317017,444.947021 378.577179,447.586609 374.813263,450.935059 
	C371.488556,453.892761 368.461121,455.174774 364.660156,452.747833 
	C360.892883,450.342346 360.138489,446.827362 361.934723,442.769745 
	C362.464020,441.574127 363.066284,440.410767 363.489899,439.533295 
	C362.925690,437.467987 362.421112,435.621033 361.916534,433.774078 
	C363.982941,434.721161 366.218658,435.419220 368.072266,436.679321 
	C370.310974,438.201233 372.225830,440.199585 374.642731,441.995850 
	C375.004608,442.000000 375.000000,442.000000 374.999725,441.997711 
z"/>
<path fill="#0E0E0E" opacity="1.000000" stroke="none" 
	d="
M152.231079,818.810974 
	C149.884613,814.564270 152.749832,812.429993 155.445618,813.313599 
	C161.241501,815.213501 166.601822,818.442200 172.140427,821.126953 
	C172.041794,821.567505 171.943161,822.008118 171.844543,822.448669 
	C168.170349,823.601746 164.496155,824.754822 160.498734,826.009338 
	C161.253937,827.935730 161.620331,828.512024 161.688248,829.121582 
	C161.812164,830.233643 161.759201,831.365479 161.780029,832.489014 
	C160.554596,832.051331 158.683731,831.968628 158.214401,831.115234 
	C156.079636,827.233154 154.339294,823.134216 152.231079,818.810974 
z"/>
<path fill="#0C0C0C" opacity="1.000000" stroke="none" 
	d="
M450.998016,707.995117 
	C450.702454,711.118408 451.064270,714.503479 449.950134,717.300720 
	C448.454376,721.055908 445.089233,722.032959 441.266724,720.113037 
	C437.276855,718.109009 434.650482,713.112488 436.325836,709.820923 
	C438.109741,706.316162 441.120880,704.369507 445.335480,705.256592 
	C446.301727,705.459961 447.251556,705.741211 448.874817,706.114136 
	C450.026489,706.826111 450.512268,707.410583 450.998016,707.995117 
z"/>
<path fill="#0F0F0F" opacity="1.000000" stroke="none" 
	d="
M451.395599,708.048340 
	C450.512268,707.410583 450.026489,706.826111 449.275818,706.122681 
	C447.578888,702.130005 446.706207,698.251282 450.475830,695.190552 
	C451.261078,694.552979 452.776978,694.815247 453.956177,694.662903 
	C453.807343,695.773010 453.605286,696.879089 453.521606,697.994080 
	C453.380249,699.877136 453.313904,701.765808 453.216064,703.652161 
	C455.100311,703.639648 456.989624,703.706177 458.866852,703.584900 
	C459.989258,703.512329 461.092651,703.145447 462.204590,702.910889 
	C461.928528,704.050598 461.879822,705.314392 461.337372,706.308838 
	C458.930634,710.721008 455.260223,708.985901 451.395599,708.048340 
z"/>
<path fill="#2D2D2D" opacity="1.000000" stroke="none" 
	d="
M458.759216,691.351196 
	C461.118317,691.797424 463.217896,691.993835 465.318268,692.183472 
	C461.451385,698.293762 460.580353,698.405884 455.773590,693.139465 
	C454.038849,691.238831 452.477386,689.179993 450.836853,687.193359 
	C451.344604,686.687195 451.852325,686.181030 452.360046,685.674866 
	C454.406616,687.483704 456.453156,689.292480 458.759216,691.351196 
z"/>
<path fill="#2D2D2D" opacity="1.000000" stroke="none" 
	d="
M463.370758,699.438843 
	C462.948120,699.328979 462.689209,699.062134 462.450531,698.778381 
	C462.444336,698.771057 462.658234,698.578552 462.769501,698.472473 
	C463.025391,698.741516 463.281311,699.010498 463.370758,699.438843 
z"/>
<path fill="#0E0E0E" opacity="1.000000" stroke="none" 
	d="
M626.024658,526.849670 
	C627.211914,528.172363 628.265503,529.335510 629.576721,529.936768 
	C631.154846,530.660522 632.952087,530.906555 634.988159,531.448181 
	C633.074280,535.921692 629.955688,535.115112 626.229614,534.098083 
	C626.735229,535.391296 627.269775,536.165039 627.290588,536.952393 
	C627.321228,538.108887 626.984741,539.275208 626.804626,540.437317 
	C625.814575,540.068726 624.579224,539.957825 623.875610,539.288208 
	C620.255371,535.843262 616.666626,532.349548 613.325439,528.639954 
	C612.622437,527.859436 613.003540,526.102356 612.885010,524.795288 
	C614.004517,525.110107 615.325256,525.152405 616.200134,525.798462 
	C617.848022,527.015442 619.238831,528.580505 620.472046,529.750122 
	C622.046570,527.199585 623.288757,525.187378 624.530945,523.175171 
	C625.022339,524.263855 625.513672,525.352539 626.024658,526.849670 
z"/>
<path fill="#0F0F0F" opacity="1.000000" stroke="none" 
	d="
M623.687012,542.969971 
	C619.535645,548.404419 615.975098,549.314209 611.942261,546.328125 
	C608.609741,543.860535 607.783264,538.691162 610.512573,535.333374 
	C611.364624,534.285095 613.166748,534.008911 614.533936,533.379333 
	C614.458679,534.736145 614.382385,536.092834 614.308533,537.449707 
	C614.218994,539.093384 613.436157,541.253784 614.191589,542.270752 
	C615.654114,544.239624 617.687439,543.984985 619.690247,542.099304 
	C620.308777,541.516907 622.309143,542.402161 623.687012,542.969971 
z"/>
<path fill="#0E0E0E" opacity="1.000000" stroke="none" 
	d="
M281.748291,520.244873 
	C280.910431,518.638489 280.328552,517.286865 279.746643,515.935303 
	C281.392303,516.086487 283.256439,515.805542 284.627930,516.499023 
	C286.319763,517.354370 287.601593,519.020508 289.383087,520.627075 
	C290.001770,517.680725 290.556946,515.036804 291.112091,512.392883 
	C291.648865,512.171326 292.185638,511.949799 292.722443,511.728271 
	C292.821594,518.614807 295.902771,522.041565 302.607269,520.990967 
	C300.833496,525.089111 300.833496,525.089111 294.802582,524.412170 
	C295.029724,526.422607 295.261627,528.475159 295.493530,530.527649 
	C294.938263,530.778625 294.382996,531.029602 293.827728,531.280640 
	C289.886536,527.687012 285.945374,524.093384 281.748291,520.244873 
z"/>
<path fill="#0E0E0E" opacity="1.000000" stroke="none" 
	d="
M119.380188,699.981567 
	C118.400810,699.181885 117.822884,698.376587 117.125496,697.290527 
	C114.717491,693.011230 115.189949,689.183472 117.988449,685.694458 
	C118.540970,685.005676 119.897064,684.961487 120.882584,684.620117 
	C121.101883,685.649536 121.502403,686.678833 121.503265,687.708435 
	C121.505135,689.947144 121.303108,692.185974 121.184433,694.424805 
	C123.327957,694.044373 125.469803,693.653992 127.616333,693.291382 
	C128.094574,693.210510 128.589325,693.227295 129.071777,693.199402 
	C129.636719,697.546936 129.409103,697.711121 119.380188,699.981567 
z"/>
<path fill="#323232" opacity="1.000000" stroke="none" 
	d="
M279.005920,537.005981 
	C278.730621,533.760620 278.116241,530.486206 278.338257,527.269531 
	C278.422638,526.047302 280.430450,524.957764 281.561615,523.807739 
	C281.987976,524.093811 282.414337,524.379944 282.840698,524.666077 
	C282.428772,525.721741 281.710632,526.766968 281.674194,527.835449 
	C281.614227,529.593140 281.376770,532.148499 282.356415,532.923279 
	C283.445770,533.784851 285.821747,533.115845 287.622284,532.948730 
	C288.856781,532.834106 290.065186,532.438477 291.285278,532.168396 
	C290.690338,533.376038 290.360657,534.856567 289.451080,535.740479 
	C286.618622,538.493103 283.236969,538.341614 279.384705,536.987671 
	C278.987793,536.988281 279.000000,537.000000 279.005920,537.005981 
z"/>
<path fill="#020202" opacity="1.000000" stroke="none" 
	d="
M39.995903,775.003296 
	C39.868778,774.858704 39.745613,774.710754 39.622456,774.562744 
	C39.713207,774.611267 39.803955,774.659851 39.950439,774.850525 
	C40.006184,774.992676 39.999863,775.000000 39.995903,775.003296 
z"/>
<path fill="#020202" opacity="1.000000" stroke="none" 
	d="
M854.001221,468.999329 
	C854.124451,469.141571 854.246460,469.284485 854.368469,469.427399 
	C854.281494,469.378448 854.194580,469.329468 854.052612,469.141479 
	C853.997559,469.002441 854.000000,469.000000 854.001221,468.999329 
z"/>
</svg>